<?xml version="1.0" encoding="utf-8"?>
<!-- Generator: Adobe Illustrator 25.2.0, SVG Export Plug-In . SVG Version: 6.00 Build 0)  -->
<svg version="1.1" id="Layer_1" xmlns="http://www.w3.org/2000/svg" xmlns:xlink="http://www.w3.org/1999/xlink" x="0px" y="0px"
	 viewBox="0 0 104.77 36.02" style="enable-background:new 0 0 104.77 36.02;" xml:space="preserve">
<style type="text/css">
	.st0{fill:#219649;}
	.st1{fill:#0075AB;}
	.st2{fill:#1175AA;}
	.st3{fill:#BDBFC1;}
	.st4{fill:#848588;}
	.st5{fill:#BEC0C2;}
	.st6{fill:#BEC0C1;}
	.st7{fill:#BEBFC1;}
	.st8{fill:#C2C3C4;}
	.st9{fill:#BFC0C2;}
	.st10{fill:#8C8D8F;}
	.st11{fill:#979899;}
	.st12{fill:#BBB9BA;}
	.st13{fill:#ABAAAC;}
	.st14{fill:#FDFDFE;}
	.st15{fill:#FFFFFF;}
	.st16{fill:#FDFEFF;}
	.st17{fill:#FEFFFF;}
	.st18{fill:#87898C;}
	.st19{fill:#878B90;}
	.st20{fill:#BEC1C4;}
	.st21{fill:#B6BFC6;}
	.st22{fill:#E3E6EA;}
	.st23{fill:#9A9C9E;}
	.st24{fill:#F4F3F3;}
</style>
<g>
	<path id="Path_45" class="st0" d="M56.84,20.38c-1.86-0.31-3.74-0.12-5.61-0.17c-0.39-0.01-0.38,0.23-0.38,0.49
		c0,0.67,0,1.35,0,2.19c-1.81-2.21-3.99-3.18-6.64-2.92c-2.68,0.26-4.61,1.7-5.89,4.15c-0.32-0.7-0.74-1.34-1.26-1.91
		c-2.09-2.26-5.64-3.05-8.85-1.41c-0.12,0.01-0.19,0.1-0.27,0.18c-1.49,0.96-2.58,2.23-3.03,3.96c-0.13,0.51-0.37,0.59-0.82,0.58
		c-1.43-0.02-2.86,0.01-4.29-0.02c-0.44-0.01-0.61,0.11-0.6,0.58c0.01,0.76-0.02,1.52-0.08,2.28c-0.04,0.43,0.15,0.51,0.52,0.49
		c0.46-0.02,0.92-0.01,1.39,0c0.23,0.01,0.59-0.09,0.53,0.32c-0.06,0.38,0.32,0.9-0.3,1.14c-1.43,0.54-3.4-0.11-4.16-1.39
		c-0.86-1.45-0.56-3.63,0.65-4.63c0.43-0.35,0.95-0.58,1.5-0.65c1.19-0.17,2.38,0.2,3.27,1.01c0.32,0.28,0.5,0.27,0.76-0.08
		c0.49-0.67,1.01-1.32,1.56-1.94c0.29-0.33,0.26-0.53-0.05-0.83c-3.35-3.23-10.3-2.36-11.84,3.24c-0.06,0.23-0.42,2.22-0.25,3.31
		c0.11,0.73,0.46,2.89,2.18,4.42c1.92,1.71,4.35,1.54,6.7,1.39c1.03-0.12,2.03-0.41,2.96-0.86c0.44-0.15,0.81-0.46,1.04-0.87
		c0.16-0.34,0.14-0.76-0.01-1.36c0.51,0.77,1.16,1.43,1.92,1.95c0.89,0.59,1.9,0.98,2.96,1.14c0.83,0.13,1.67,0.13,2.5,0
		c0.88-0.11,1.74-0.38,2.53-0.8c1.24-0.69,2.25-1.74,2.89-3.01c0.49,0.97,1.2,1.82,2.07,2.48c0.9,0.67,1.95,1.13,3.05,1.33
		c0.87,0.16,1.76,0.16,2.64,0c0.62-0.13,1.23-0.34,1.8-0.62c1.14-0.56,2.14-1.35,2.94-2.34c0,0.86,0.01,1.54-0.01,2.22
		c-0.01,0.32,0.1,0.45,0.43,0.44c1.75-0.05,3.51,0.09,5.26-0.13c3.39-0.42,5.47-2.35,5.85-5.63C62.82,24.53,61.53,21.17,56.84,20.38
		z M25.48,31c-0.06,0.06-0.01-0.08,0.02-0.02C25.49,30.99,25.48,31,25.48,31L25.48,31z M34.97,27.08c-0.06,2.01-1.41,3.37-3.3,3.32
		c-1.89-0.05-3.19-1.51-3.13-3.49c0.07-2.02,1.39-3.35,3.3-3.3C33.72,23.65,35.02,25.1,34.97,27.08L34.97,27.08z M44.94,30.4
		c-1.89,0-3.19-1.4-3.19-3.41c0.01-2.02,1.3-3.38,3.21-3.38c1.89,0,3.21,1.4,3.2,3.4S46.83,30.41,44.94,30.4L44.94,30.4z
		 M55.23,30.26c-0.42,0.01-0.5-0.17-0.49-0.53c0.02-0.92,0.01-1.84,0.01-2.76c0-0.89,0.03-1.79-0.01-2.69
		c-0.03-0.56,0.19-0.65,0.68-0.61c1.99,0.13,3.17,1.39,3.12,3.38C58.49,29.04,57.25,30.23,55.23,30.26L55.23,30.26z"/>
	<path id="Path_46" class="st0" d="M101.72,26.03c0-0.39-0.11-0.51-0.51-0.51c-1.73,0.02-3.47,0.02-5.2,0
		c-0.44-0.01-0.54,0.17-0.54,0.57c0,0.76-0.03,1.52-0.09,2.28c-0.03,0.42,0.13,0.52,0.51,0.5c0.51-0.02,1.02-0.01,1.53-0.01
		c0.18,0,0.35-0.03,0.42,0.24c0.22,0.89,0,1.25-0.91,1.34c-0.32,0.03-0.65,0.03-0.97,0.01c-1.31-0.04-2.46-0.89-2.87-2.13
		c-0.49-1.44-0.13-3.09,0.87-3.96c0.44-0.38,0.98-0.63,1.56-0.7c1.19-0.17,2.39,0.2,3.27,1c0.32,0.27,0.5,0.29,0.76-0.07
		c0.46-0.64,0.95-1.25,1.47-1.83c0.38-0.41,0.36-0.66-0.07-1.04c-3.22-2.89-8.59-2.19-10.93,1.46c-0.1,0.16-0.14,0.39-0.39,0.49
		c-1.43-2.38-3.52-3.68-6.31-3.7c-2.81-0.02-4.91,1.29-6.43,3.67c-1.06-1.9-2.68-2.81-4.66-3.19c-1.95-0.37-3.92-0.16-5.88-0.22
		c-0.4-0.01-0.37,0.25-0.37,0.51v3.8c0,2.9,0,5.8,0,8.71c0,0.3-0.11,0.66,0.44,0.65c1.73-0.06,3.47,0.1,5.19-0.13
		c1.89-0.25,3.57-0.92,4.77-2.5c0.18-0.23,0.25-0.54,0.53-0.69c0.4,0.68,1.48,2.37,3.38,3.14c0.56,0.22,1.14,0.38,1.74,0.47
		c0.78,0.11,1.58,0.11,2.36,0c0.56-0.06,1.12-0.18,1.65-0.35c1.49-0.54,2.64-1.65,3.62-3.03c1.06,1.49,2.59,2.59,4.35,3.11
		c1.48,0.35,3.02,0.35,4.5,0c0.37-0.09,0.73-0.19,1.09-0.32c0.6-0.21,1.18-0.47,1.74-0.78c0.26-0.11,0.41-0.36,0.39-0.64
		C101.7,30.13,101.7,28.08,101.72,26.03z M70.3,30.27c-0.39,0-0.46-0.17-0.45-0.5c0.01-0.94,0-1.88,0-2.82
		c0-0.92,0.01-1.84-0.01-2.76c-0.01-0.38,0.11-0.52,0.51-0.52c2.01,0,3.31,1.32,3.29,3.36C73.62,29.03,72.3,30.3,70.3,30.27z
		 M83.24,30.41c-1.9-0.01-3.19-1.4-3.18-3.42s1.3-3.38,3.21-3.38c1.9,0.01,3.19,1.39,3.19,3.41C86.45,29.03,85.13,30.42,83.24,30.41
		L83.24,30.41z"/>
	<path id="Path_47" class="st1" d="M23.74,13.12c-0.13,2.02-1.71,3.67-3.9,4.08c-2.12,0.42-4.31-0.12-5.99-1.48
		c-0.61-0.47-0.89-1.16-1.21-1.82c-0.17-0.24-0.29-0.51-0.36-0.79c-0.01-0.04-0.03-0.09-0.04-0.13c-0.01-0.03-0.02-0.06-0.03-0.09
		c-0.22-0.62-0.76-0.76-1.35-0.82c-0.42-0.06-0.84-0.08-1.26-0.05c-0.19,0-0.38,0-0.56-0.02c-0.2-0.02-0.39-0.08-0.57-0.15
		c-0.04-0.02-0.08-0.04-0.11-0.08c-0.02-0.02-0.03-0.03-0.05-0.05c-0.1-0.11-0.2-0.23-0.41-0.09c-0.01,0-0.01,0-0.02,0
		c-0.03,0.01-0.05,0.01-0.08,0.01c-0.19,0-0.38-0.04-0.55-0.12c0,0,0,0,0,0c-0.03-0.01-0.06-0.02-0.09-0.04
		c-0.14-0.08-0.26-0.19-0.35-0.33C6.02,10.62,5.37,9.92,4.9,9.1C4.46,8.47,4.31,7.68,4.46,6.93c0.25-1.22,1.1-1.61,2.19-1.03
		c0.68,0.22,0.67,0.91,0.96,1.4c0,0.01,0,0.02,0,0.03l0,0.07C7.64,7.64,7.65,7.87,7.9,7.9c0,0,0,0,0.01,0
		C7.97,7.91,8.04,7.91,8.1,7.9c0.85,0.78,1.91,0.97,3,0.97c0.81,0.01,1.6,0.18,2.34,0.5c0.64,0.27,1.17,0.76,1.47,1.38
		c0,0.01,0.01,0.01,0.01,0.02l0,0c0.01,0.02,0.02,0.04,0.03,0.06c0.13,0.29,0.27,0.58,0.43,0.86c0.04,0.06,0.08,0.12,0.12,0.17
		c0.05,0.06,0.09,0.12,0.15,0.17c0.65,0.74,1.4,1.33,2.43,1.44c0.09,0.02,0.18,0.02,0.28,0.02c0.41-0.03,0.93,0,1.02-0.5
		c0.09-0.5-0.42-0.61-0.77-0.72c-1.07-0.33-2.16-0.62-3.1-1.25c-0.01,0-0.02-0.01-0.02-0.01c-0.02-0.02-0.03-0.03-0.05-0.05
		c-0.12-0.1-0.25-0.2-0.37-0.31c-0.06-0.05-0.12-0.11-0.18-0.16c-0.04-0.04-0.08-0.08-0.12-0.12c-0.24-0.26-0.45-0.56-0.6-0.88
		c0,0,0,0,0,0c-0.02-0.06-0.04-0.11-0.06-0.17c-0.09-0.21-0.11-0.45-0.07-0.68c-0.06-0.62-0.05-1.24,0.04-1.86
		c0.38-1.9,1.82-3.2,3.98-3.49c1.83-0.28,3.69,0.22,5.14,1.36c0.35,0.27,0.36,0.44,0.09,0.76c-0.54,0.63-1.06,1.28-1.56,1.94
		c-0.24,0.31-0.4,0.35-0.7,0.06c-0.56-0.57-1.36-0.84-2.15-0.74c-0.37,0.05-0.71,0.17-0.78,0.57c-0.07,0.43,0.27,0.6,0.61,0.72
		c0.57,0.19,1.14,0.35,1.72,0.53C22.79,9.26,23.89,10.8,23.74,13.12z"/>
	<path id="Path_48" class="st1" d="M58.16,10.23c0,2.07-0.03,4.14,0.02,6.21c0.01,0.63-0.19,0.79-0.78,0.75
		c-0.81-0.04-1.62-0.04-2.42,0.01c-0.53,0.03-0.73-0.11-0.71-0.67c0.04-1.36,0-2.72,0.02-4.07c0.01-0.46-0.09-0.67-0.6-0.64
		c-0.72,0.04-1.43,0.04-2.15,0c-0.48-0.02-0.58,0.18-0.58,0.61c0.02,1.38-0.01,2.76,0.02,4.14c0.01,0.49-0.15,0.64-0.63,0.62
		c-0.9-0.03-1.8-0.02-2.7,0.01c-0.41,0.01-0.57-0.11-0.57-0.54c0.01-4.28,0.01-8.56,0-12.84c0-0.41,0.12-0.57,0.55-0.56
		c0.95,0.02,1.89,0.02,2.84-0.01c0.41-0.01,0.51,0.15,0.51,0.52c-0.02,1.29,0.01,2.58-0.01,3.87c-0.01,0.44,0.11,0.62,0.59,0.59
		c0.71-0.04,1.43-0.03,2.15,0c0.45,0.02,0.6-0.11,0.59-0.58c-0.03-1.24,0.01-2.49-0.02-3.73c-0.01-0.52,0.14-0.69,0.66-0.67
		c0.88,0.04,1.76,0.03,2.63-0.01c0.51-0.02,0.61,0.17,0.61,0.63C58.15,6,58.16,8.12,58.16,10.23z"/>
	<path id="Path_49" class="st2" d="M35.83,8.45c0,1.1-0.04,2.21,0.01,3.31c0.15,3.99-2.37,5.68-6.02,5.55
		c-0.69-0.02-1.38-0.14-2.04-0.37c-1.9-0.68-3-2.05-3.07-4.02c-0.11-2.96-0.05-5.94-0.06-8.91c0-0.31,0.1-0.46,0.44-0.45
		c0.99,0.02,1.99,0.03,2.98,0.01c0.51-0.01,0.47,0.3,0.47,0.63c0,2.23,0,4.47,0,6.7c0,0.32,0,0.65,0.02,0.97
		c0.09,1.16,0.61,1.66,1.69,1.66c1.08,0,1.64-0.5,1.66-1.67c0.05-2.51,0.04-5.02,0.02-7.53c-0.01-0.6,0.14-0.82,0.77-0.77
		c0.83,0.05,1.66,0.06,2.49,0.01c0.54-0.03,0.66,0.17,0.65,0.67C35.81,5.64,35.83,7.04,35.83,8.45z"/>
	<path id="Path_50" class="st1" d="M68.04,2.44c-0.41,0.78-0.77,1.44-1.12,2.11c-2.12,4.04-4.25,8.07-6.38,12.1
		c-0.25,0.47-0.22,0.62,0.36,0.61c1.04-0.01,2.08,0.02,3.12,0.06c0.33,0.05,0.64-0.15,0.73-0.47c0.26-0.62,0.57-1.21,0.82-1.83
		c0.08-0.27,0.34-0.45,0.62-0.41c1.16,0.02,2.31,0.02,3.47,0c0.33-0.03,0.63,0.17,0.73,0.49c0.26,0.61,0.56,1.21,0.84,1.82
		c0.1,0.21,0.19,0.4,0.49,0.4c1.31-0.01,2.62-0.01,4.1-0.01C73.19,12.29,70.65,7.42,68.04,2.44z M68.62,11.51c-0.44,0-0.87,0-1.31,0
		c-0.28,0-0.39-0.1-0.26-0.38c0.28-0.59,0.56-1.18,0.9-1.91c0.35,0.73,0.62,1.32,0.91,1.91C69,11.4,68.91,11.51,68.62,11.51
		L68.62,11.51z"/>
	<path id="Path_51" class="st1" d="M46.16,12.76c0,1.22-0.03,2.28,0.01,3.33c0.07,0.39-0.19,0.77-0.58,0.85
		c-3.3,1.22-6.98-0.41-8.29-3.68c-1.43-3.53-0.38-8.23,4.04-9.79c1.36-0.48,2.84-0.52,4.22-0.1c0.34,0.04,0.59,0.35,0.55,0.7
		c0,0.01,0,0.02,0,0.02c-0.03,0.97-0.02,1.93,0.01,2.9c0.01,0.48-0.06,0.65-0.55,0.33c-0.57-0.41-1.26-0.6-1.96-0.54
		c-1.42,0.15-2.4,0.94-2.78,2.23c-0.43,1.48-0.01,3.09,1.04,3.91c1.08,0.84,2.45,0.89,3.76,0.14
		C45.73,12.99,45.85,12.93,46.16,12.76z"/>
	<path id="Path_52" class="st3" d="M6.5,14.46c-1.54-0.37-2.73-1.16-3.34-2.68c-0.12-0.28-0.14-0.59-0.05-0.87
		c0.22-0.7,0.7-0.87,1.3-0.45c0.47,0.33,0.89,0.72,1.35,1.06c0.27,0.2,0.52,0.47,0.91,0.43c0.16,0.22,0.05,0.39-0.09,0.56
		c-0.56,0.12-0.87-0.34-1.26-0.58c-0.37-0.22-0.68-0.54-1.03-0.8c-0.14-0.1-0.28-0.29-0.48-0.13c-0.16,0.13-0.13,0.33-0.08,0.51
		c0.17,0.48,0.46,0.9,0.84,1.23c0.24,0.24,0.51,0.46,0.8,0.64c0.66,0.41,0.66,0.41,0.88-0.32c0.07-0.25,0.17-0.48,0.41-0.1
		C6.72,13.48,6.87,14,6.5,14.46z"/>
	<path id="Path_53" class="st3" d="M7.51,7.4c-0.29-0.5-0.4-1.1-0.86-1.5c0.3-0.34,0.11-0.75,0.13-1.12
		C6.83,4.03,7.26,3.44,7.9,3.44c0.69,0,0.88,0.51,1.02,1.09C9.03,4.93,8.97,5.4,9.3,5.75c0.05,0.05,0.05,0.12,0,0.17
		c0,0-0.01,0.01-0.02,0.01C9.1,6.05,8.91,6.15,8.69,6.01C8.44,5.58,8.46,5.08,8.31,4.63c-0.08-0.23-0.1-0.55-0.45-0.5
		c-0.29,0.04-0.4,0.29-0.44,0.55c-0.11,0.7,0.11,1.36,0.32,2.01c0.05,0.13,0.08,0.26,0.1,0.4C7.82,7.29,7.75,7.43,7.51,7.4z"/>
	<path id="Path_54" class="st4" d="M6.5,14.46c0-0.56,0-1.12,0.01-1.68c-0.07-0.07-0.07-0.19,0-0.26c0,0,0.01-0.01,0.01-0.01
		l0.14-0.56l0.16-0.52c0.4,0.07,0.28,0.4,0.3,0.64c0.06,0.63-0.06,1.28,0.07,1.91c0.04,0.21,0.01,0.42-0.1,0.6
		c0.1,1.08,0.59,2.03,0.96,3.02c0.08,0.1,0.07,0.25-0.02,0.34C7.05,17,6.75,15.74,6.5,14.46z"/>
	<path id="Path_55" class="st5" d="M12.36,12.93c0.16,0.3,0.25,0.63,0.27,0.97c-0.81-0.63-1.65-0.64-2.56-0.19
		c-0.54,0.31-1.13,0.52-1.74,0.61c-0.04,0.05-0.12,0.05-0.17,0.01c-0.01-0.01-0.02-0.02-0.02-0.03c-0.08-0.13-0.07-0.3,0.01-0.43
		C9.48,13.26,10.78,12.48,12.36,12.93z"/>
	<path id="Path_56" class="st6" d="M14.02,8.65l0.27,0.82c-0.08,0.04-0.18,0.04-0.26-0.02c-0.91-0.63-1.98-0.87-3.01-1.19
		C10.65,8.2,10.31,8.06,10,7.86c-0.07-0.34,0.04-0.56,0.42-0.59c0.06,0.15,0.2,0.26,0.36,0.28C11.88,7.85,12.96,8.22,14.02,8.65z"/>
	<path id="Path_57" class="st7" d="M9.31,6.06c0.06,0.46,0.3,0.89,0.66,1.19c0.11,0.22,0.02,0.49-0.19,0.61
		C9.23,7.54,9,6.99,8.72,6.47c0-0.35,0.29-0.4,0.53-0.49L9.31,6.06z"/>
	<path id="Path_58" class="st8" d="M7.05,14.06c-0.22-0.58-0.06-1.18-0.11-1.77c-0.02-0.29,0.1-0.6-0.12-0.86
		c-0.01-0.1-0.01-0.19-0.02-0.29l0.45,0.22c-0.07,0.35,0.13,0.69,0.47,0.79c0.07,0.16,0.06,0.34-0.02,0.49
		c-0.61,0.25-0.36,0.84-0.5,1.27C7.16,13.98,7.11,14.03,7.05,14.06z"/>
	<path id="Path_59" class="st9" d="M8.18,14.31l0.15,0c-0.36,0.32-0.87-0.02-1.23,0.28c-0.01-0.18-0.03-0.35-0.04-0.53l0.04-0.04
		c0.21-0.16,0.49-0.19,0.73-0.1C8.02,13.98,8.08,14.16,8.18,14.31z"/>
	<path id="Path_60" class="st10" d="M9.72,7.83c0.08-0.19,0.16-0.39,0.24-0.58c0.15-0.12,0.29-0.26,0.51-0.21l-0.07,0.24l-0.39,0.57
		c0,0.19-0.03,0.42-0.27,0.37C9.56,8.17,9.61,7.97,9.72,7.83z"/>
	<path id="Path_61" class="st11" d="M6.71,18.27c0.01-0.11,0.01-0.22,0.02-0.34c0.14,0.2,0.28,0.41,0.41,0.61
		c-0.05,0.11-0.16,0.17-0.27,0.18C6.82,18.57,6.77,18.42,6.71,18.27z"/>
	<path id="Path_62" class="st12" d="M10.9,6.94c-0.13,0-0.19-0.06-0.15-0.12c0.06-0.06,0.13-0.1,0.21-0.11
		c0.05-0.01,0.11,0.04,0.16,0.06L10.9,6.94z"/>
	<path id="Path_63" class="st13" d="M9.3,5.87c0-0.04,0-0.08,0-0.12h0.52L9.31,6.06L9.29,6.01C9.25,5.98,9.23,5.95,9.25,5.92
		C9.26,5.89,9.28,5.87,9.3,5.87z"/>
	<path id="Path_64" class="st14" d="M9.73,7.83C9.72,7.93,9.67,8.05,9.77,8.14l0.26-0.3c1.48,0.39,3.02,0.64,4.27,1.63l0.55,0.83
		c0.02,0.19,0.5,0.41-0.02,0.58c-0.75-1.33-2.01-1.72-3.41-1.82c-0.67-0.01-1.33-0.08-1.98-0.21C8.84,8.71,8.31,8.39,7.92,7.94
		c-0.19-0.62,0.1-1.12,0.84-1.49C9.14,6.86,9.47,7.32,9.73,7.83z"/>
	<path id="Path_65" class="st15" d="M19.38,13c-0.09,0.5-0.61,0.47-1.02,0.5c-0.09,0-0.18-0.01-0.28-0.02
		c-1.03-0.12-1.78-0.7-2.43-1.44c-0.05-0.05-0.1-0.11-0.15-0.17c0-0.28,0-0.56,0-0.83c0.95,0.63,2.03,0.92,3.1,1.25
		C18.97,12.39,19.48,12.5,19.38,13z"/>
	<path id="Path_66" class="st16" d="M18.83,12.18c-1.13-0.37-2.28-0.7-3.33-1.3c-0.03,0.03-0.05,0.06-0.07,0.09
		c-0.15,0.21-0.16,0.49-0.04,0.72c0.06,0.14,0.1,0.29,0.12,0.44c0.81,0.94,1.77,1.61,3.08,1.54c0.47-0.02,0.98-0.12,1.05-0.7
		C19.7,12.45,19.22,12.31,18.83,12.18z"/>
	<path id="Path_67" class="st17" d="M12.36,12.93c-0.03,0.11-0.06,0.25-0.22,0.17c-0.96-0.43-1.79,0.07-2.64,0.36
		c-0.43,0.14-0.87,0.29-1.3,0.43c-0.32-0.39-0.18-0.83-0.14-1.27c0.03-0.08,0.06-0.15,0.12-0.21c0.85-0.66,1.83-0.55,2.81-0.48
		C11.69,11.93,12.21,12.18,12.36,12.93z"/>
	<path id="Path_68" class="st18" d="M7.63,12.66l0.03-0.54c-0.04-0.23-0.02-0.43,0.23-0.53c0.1-0.13,0.13-0.41,0.33-0.37
		c0.22,0.05,0.07,0.31,0.11,0.46c0.08,0.29,0.04,0.59-0.12,0.84l-0.02-0.01c-0.14,0.32-0.03,0.65-0.07,0.98
		c-0.02,0.16,0.07,0.37-0.17,0.44C7.55,13.63,7.42,13.1,7.63,12.66z"/>
	<path id="Path_69" class="st19" d="M8.76,6.45C8.41,6.91,7.83,7.24,7.92,7.94C7.37,8.07,7.59,7.62,7.51,7.4
		c0.13-0.05,0.22-0.16,0.24-0.3c0.03-0.55,0.45-1.01,1-1.08C8.91,5.92,9.1,5.87,9.3,5.87c0,0.05,0,0.09,0,0.14L8.76,6.45z"/>
	<path id="Path_70" class="st20" d="M8.2,12.52c0.03-0.28-0.1-0.59,0.12-0.84c0.87,0.29,1.79-0.01,2.66,0.26
		C10.02,11.85,9.05,12.06,8.2,12.52z"/>
	<path id="Path_71" class="st21" d="M15.51,11.86v0.27c-0.29-0.38-0.52-0.8-0.68-1.25c0.05-0.03,0.08-0.07,0.1-0.11l0,0
		c0.02-0.09,0-0.19-0.05-0.27c-0.03-0.06-0.05-0.13-0.03-0.2c0.22,0.19,0.44,0.39,0.66,0.58v0.14
		C15.51,11.31,15.51,11.58,15.51,11.86z"/>
	<path id="Path_72" class="st22" d="M7.89,11.59c-0.08,0.18-0.15,0.36-0.23,0.53c-0.18,0.02-0.41,0.24-0.53-0.02
		c-0.14-0.24-0.09-0.55,0.12-0.73L7.89,11.59z"/>
	<path id="Path_73" class="st15" d="M6.52,12.52c0,0.09-0.01,0.18-0.01,0.27c-0.25,0.35-0.04,0.77-0.19,1.19
		c-1.22-0.33-2.22-1.18-2.74-2.33c-0.18-0.29-0.13-0.66,0.13-0.89c0.32-0.25,0.52,0.13,0.73,0.3C5.08,11.61,5.78,12.1,6.52,12.52z"
		/>
	<path id="Path_74" class="st17" d="M8.75,6.03C8.34,6.31,8,6.68,7.75,7.1C7.36,6.38,7.18,5.56,7.22,4.74
		c0.02-0.42,0.16-0.78,0.64-0.83c0.53-0.06,0.56,0.35,0.62,0.71C8.58,5.09,8.66,5.56,8.75,6.03z"/>
	<path id="Path_75" class="st23" d="M7.93,13.89c0.32-0.42-0.08-0.97,0.26-1.38l0.01,1.37c0,0.14-0.01,0.28-0.01,0.42
		c-0.13-0.05-0.24-0.15-0.29-0.29c-0.03-0.04-0.02-0.09,0.02-0.12C7.92,13.9,7.92,13.9,7.93,13.89z"/>
	<path id="Path_76" class="st24" d="M7.93,13.89c-0.01,0.04-0.02,0.09-0.03,0.13h-0.8c0-0.29,0.01-0.58-0.02-0.87
		c-0.04-0.43,0.17-0.56,0.56-0.5L7.93,13.89z"/>
</g>
</svg>
