<?xml version="1.0" encoding="utf-8"?>
<!-- Generator: Adobe Illustrator 25.2.0, SVG Export Plug-In . SVG Version: 6.00 Build 0)  -->
<svg version="1.1" id="Layer_1" xmlns="http://www.w3.org/2000/svg" xmlns:xlink="http://www.w3.org/1999/xlink" x="0px" y="0px"
	 viewBox="0 0 101.75 87.59" style="enable-background:new 0 0 101.75 87.59;" xml:space="preserve">
<style type="text/css">
	.st0{fill:#214C65;stroke:#214C65;stroke-width:0.2832;stroke-miterlimit:10;}
	.st1{fill:#214C65;stroke:#214C65;stroke-width:0.6528;stroke-miterlimit:10;}
	.st2{fill:#214C65;stroke:#214C65;stroke-width:0.9811;stroke-miterlimit:10;}
	.st3{fill:#214C65;stroke:#214C65;stroke-width:1.0023;stroke-miterlimit:10;}
</style>
<g>
	<path class="st2" d="M38.99,84.59c-2.79,0-5.57-0.8-7.81-2.4c-4.2-3.01-6.34-8.02-5.59-13.09c-5.09,0.73-10.1-1.41-13.11-5.61
		c-3.17-4.43-3.01-11.81,0.34-16.12c4.58-5.88,13.1-6.99,18.99-2.47l20.14-20.2c-2.17-2.82-3.14-6.5-2.65-10.07
		c0.5-3.61,2.39-6.81,5.35-9.03C59.15,2.22,66,2.14,70.57,5.41c4.2,3.01,6.34,8.02,5.59,13.09c5.09-0.73,10.1,1.41,13.11,5.61
		c3.17,4.43,3.01,11.81-0.34,16.12c-4.58,5.89-13.1,6.99-18.99,2.47L49.8,62.89c2.17,2.85,3.14,6.52,2.65,10.08
		c-0.49,3.61-2.39,6.81-5.35,9.03C44.8,83.72,41.9,84.59,38.99,84.59z M25.59,66.86c0.59,0,1.15,0.23,1.57,0.65
		c0.5,0.5,0.73,1.2,0.63,1.91c-0.63,4.24,1.17,8.44,4.68,10.96c3.75,2.69,9.59,2.62,13.3-0.16c2.48-1.86,4.07-4.54,4.48-7.56
		c0.41-2.99-0.4-6.07-2.23-8.45c-0.66-0.86-0.57-2.1,0.21-2.88l20.18-20.18c0.78-0.78,2.01-0.87,2.87-0.21
		c4.93,3.78,12.05,2.85,15.89-2.07c2.76-3.54,2.89-9.83,0.29-13.47c-2.52-3.52-6.72-5.32-10.96-4.69c-0.71,0.1-1.41-0.12-1.91-0.63
		c-0.5-0.5-0.73-1.2-0.62-1.91c0.63-4.24-1.17-8.44-4.68-10.96c-3.75-2.69-9.59-2.62-13.3,0.16c-2.48,1.86-4.07,4.54-4.48,7.56
		c-0.41,2.99,0.4,6.07,2.23,8.46c0.66,0.86,0.57,2.1-0.21,2.88L33.34,46.45c-0.78,0.78-2.01,0.86-2.87,0.21
		c-4.93-3.78-12.05-2.85-15.89,2.07c-2.76,3.54-2.89,9.83-0.29,13.47c2.52,3.52,6.72,5.32,10.96,4.69
		C25.36,66.87,25.48,66.86,25.59,66.86z"/>
	<path class="st2" d="M44.09,57c-0.29,0-0.58-0.11-0.8-0.34c-0.42-0.44-0.41-1.14,0.03-1.57l14.77-14.21
		c0.44-0.42,1.14-0.41,1.57,0.03c0.42,0.44,0.41,1.14-0.03,1.57L44.86,56.69C44.64,56.89,44.37,57,44.09,57z"/>
</g>
</svg>
