<?xml version="1.0" encoding="utf-8"?>
<!-- Generator: Adobe Illustrator 25.2.0, SVG Export Plug-In . SVG Version: 6.00 Build 0)  -->
<svg version="1.1" id="Layer_1" xmlns="http://www.w3.org/2000/svg" xmlns:xlink="http://www.w3.org/1999/xlink" x="0px" y="0px"
	 viewBox="0 0 101.75 87.59" style="enable-background:new 0 0 101.75 87.59;" xml:space="preserve">
<style type="text/css">
	.st0{fill:#214C65;stroke:#214C65;stroke-width:0.2832;stroke-miterlimit:10;}
	.st1{fill:#214C65;stroke:#214C65;stroke-width:0.6528;stroke-miterlimit:10;}
	.st2{fill:#214C65;stroke:#214C65;stroke-width:0.75;stroke-miterlimit:10;}
</style>
<g>
	<path class="st1" d="M18.1,87.59c-0.16,0-0.32-0.04-0.47-0.11c-0.39-0.18-0.63-0.57-0.63-1V9.58c0-0.43,0.25-0.82,0.63-1
		c0.39-0.18,0.84-0.13,1.17,0.14l4.39,3.58l4.39-3.58c0.41-0.33,1-0.33,1.4,0l4.32,3.56l4.17-3.55c0.41-0.35,1.02-0.35,1.43-0.01
		l4.24,3.57l4.38-3.58c0.41-0.33,0.99-0.33,1.4,0l4.38,3.58l4.24-3.57c0.41-0.35,1.02-0.35,1.43,0.01l4.17,3.55l4.32-3.56
		c0.41-0.34,0.99-0.34,1.4,0l4.39,3.58l4.39-3.58c0.33-0.27,0.79-0.33,1.17-0.14c0.39,0.18,0.63,0.57,0.63,1v76.91
		c0,0.43-0.25,0.82-0.63,1c-0.39,0.18-0.84,0.13-1.17-0.14l-4.39-3.58l-4.39,3.58c-0.41,0.33-1,0.33-1.4,0l-4.32-3.56l-4.17,3.55
		c-0.41,0.35-1.02,0.35-1.43,0.01l-4.24-3.57l-4.38,3.58c-0.41,0.33-0.99,0.33-1.4,0l-4.38-3.58l-4.24,3.57
		c-0.41,0.35-1.02,0.35-1.43-0.01l-4.17-3.55l-4.32,3.56c-0.41,0.34-0.99,0.34-1.4,0l-4.39-3.58l-4.39,3.58
		C18.6,87.51,18.35,87.59,18.1,87.59z M43.13,81.23c0.25,0,0.5,0.08,0.7,0.25l4.39,3.58l4.39-3.58c0.41-0.34,1-0.33,1.41,0.01
		l4.23,3.55l4.16-3.55c0.41-0.35,1.01-0.35,1.42-0.01l4.33,3.58l4.39-3.58c0.41-0.33,0.99-0.33,1.4,0l3.28,2.68V11.91l-3.28,2.68
		c-0.41,0.33-0.99,0.33-1.4,0l-4.39-3.58l-4.33,3.58c-0.41,0.34-1.01,0.34-1.42-0.01l-4.16-3.55l-4.23,3.55
		c-0.41,0.34-1,0.35-1.41,0.01l-4.39-3.58l-4.39,3.58c-0.41,0.34-1,0.33-1.41-0.01l-4.23-3.55l-4.16,3.55
		c-0.41,0.35-1.01,0.35-1.42,0.01l-4.33-3.58l-4.39,3.58c-0.41,0.33-0.99,0.33-1.4,0l-3.28-2.68v72.25l3.28-2.68
		c0.41-0.33,0.99-0.33,1.4,0l4.39,3.58l4.33-3.58c0.41-0.34,1.01-0.34,1.42,0.01l4.16,3.55l4.23-3.55
		C42.63,81.31,42.88,81.23,43.13,81.23z"/>
	<path class="st1" d="M83.64,80.22c-0.25,0-0.5-0.08-0.7-0.25l-5.09-4.16c-0.47-0.39-0.54-1.08-0.16-1.56
		c0.39-0.47,1.08-0.54,1.55-0.16l3.28,2.68V3.44l-3.28,2.68c-0.41,0.33-0.99,0.33-1.4,0l-4.39-3.58l-4.33,3.58
		c-0.41,0.34-1.01,0.34-1.42-0.01l-4.16-3.55l-4.23,3.55c-0.41,0.34-1,0.35-1.41,0.01l-4.39-3.58l-4.39,3.58
		c-0.41,0.34-1,0.33-1.41-0.01L43.5,2.55L39.34,6.1c-0.41,0.35-1.01,0.35-1.42,0.01l-4.33-3.58L29.2,6.12
		c-0.41,0.33-0.99,0.33-1.4,0l-3.28-2.68v10.3c0,0.61-0.49,1.11-1.11,1.11c-0.61,0-1.11-0.49-1.11-1.11V1.11
		c0-0.43,0.25-0.82,0.63-1c0.39-0.18,0.84-0.13,1.17,0.14l4.39,3.58l4.39-3.58c0.41-0.33,1-0.33,1.4,0l4.32,3.56l4.17-3.55
		c0.41-0.35,1.02-0.35,1.43-0.01l4.24,3.57l4.38-3.58c0.41-0.33,0.99-0.33,1.4,0l4.38,3.58l4.24-3.57c0.41-0.35,1.02-0.35,1.43,0.01
		l4.17,3.55l4.32-3.56c0.41-0.34,0.99-0.34,1.4,0l4.39,3.58l4.39-3.58c0.33-0.27,0.79-0.33,1.17-0.14c0.39,0.18,0.63,0.57,0.63,1
		v78.01c0,0.43-0.25,0.82-0.63,1C83.97,80.19,83.81,80.22,83.64,80.22z"/>
	<path class="st1" d="M61.32,76.86c-0.87,0-1.68-0.34-2.29-0.95c-0.26-0.26-0.63-0.36-0.99-0.26c-0.84,0.23-1.71,0.11-2.46-0.32
		c-0.75-0.43-1.28-1.13-1.51-1.97c-0.09-0.35-0.37-0.63-0.72-0.72c-0.84-0.22-1.54-0.76-1.97-1.5c-0.43-0.75-0.55-1.62-0.32-2.46
		c0.1-0.35-0.01-0.73-0.26-0.99c-0.61-0.61-0.95-1.42-0.95-2.29c0-0.87,0.34-1.68,0.95-2.29c0.26-0.26,0.36-0.63,0.26-0.99
		c-0.23-0.84-0.11-1.71,0.32-2.46c0.43-0.75,1.13-1.28,1.97-1.5c0.35-0.09,0.63-0.37,0.72-0.72c0.22-0.84,0.76-1.54,1.51-1.97
		c0.75-0.43,1.62-0.55,2.46-0.32c0.35,0.09,0.73-0.01,0.99-0.26c1.22-1.23,3.36-1.23,4.58,0c0.26,0.26,0.64,0.36,0.99,0.26
		c0.83-0.23,1.71-0.11,2.46,0.32c0.75,0.43,1.28,1.13,1.51,1.97c0.09,0.35,0.37,0.63,0.72,0.72c0.84,0.22,1.54,0.76,1.97,1.5
		c0.43,0.75,0.55,1.62,0.32,2.46c-0.1,0.35,0.01,0.73,0.26,0.99c0.61,0.61,0.95,1.42,0.95,2.29c0,0.87-0.34,1.68-0.95,2.29
		c-0.26,0.26-0.36,0.63-0.26,0.99c0.23,0.84,0.11,1.71-0.32,2.46c-0.43,0.75-1.13,1.28-1.97,1.5c-0.35,0.09-0.63,0.37-0.72,0.72
		c-0.22,0.84-0.76,1.54-1.51,1.97c-0.75,0.43-1.62,0.55-2.46,0.32c-0.35-0.1-0.73,0.01-0.99,0.26C63,76.52,62.18,76.86,61.32,76.86z
		 M58.3,73.39c0.85,0,1.68,0.34,2.29,0.95c0.38,0.39,1.06,0.39,1.44,0c0.82-0.82,2.02-1.14,3.14-0.84c0.26,0.07,0.54,0.04,0.77-0.1
		c0.24-0.14,0.4-0.36,0.47-0.62c0.29-1.12,1.17-2,2.3-2.29c0.26-0.07,0.48-0.24,0.62-0.47c0.14-0.24,0.17-0.51,0.1-0.77
		c-0.3-1.12,0.02-2.32,0.84-3.13c0.19-0.19,0.3-0.45,0.3-0.72c0-0.27-0.11-0.53-0.3-0.72c-0.82-0.82-1.14-2.02-0.84-3.14
		c0.07-0.26,0.04-0.54-0.1-0.77c-0.14-0.24-0.36-0.4-0.62-0.47c-1.12-0.3-2-1.18-2.3-2.3c-0.07-0.26-0.24-0.48-0.47-0.62
		c-0.24-0.14-0.51-0.17-0.77-0.1c-1.12,0.31-2.32-0.02-3.14-0.84c-0.38-0.39-1.06-0.39-1.44,0c-0.81,0.82-2.02,1.15-3.14,0.84
		c-0.26-0.07-0.54-0.04-0.77,0.1c-0.24,0.14-0.4,0.36-0.47,0.62c-0.29,1.12-1.17,2-2.29,2.29c-0.26,0.07-0.48,0.24-0.62,0.47
		c-0.14,0.24-0.17,0.51-0.1,0.77c0.3,1.12-0.02,2.32-0.84,3.13c-0.19,0.19-0.3,0.45-0.3,0.72c0,0.27,0.11,0.53,0.3,0.72
		c0.82,0.82,1.14,2.02,0.84,3.14c-0.07,0.26-0.04,0.54,0.1,0.77c0.14,0.24,0.36,0.4,0.62,0.47c1.12,0.3,2,1.18,2.3,2.3
		c0.07,0.26,0.24,0.48,0.47,0.62c0.24,0.14,0.51,0.17,0.77,0.1C57.74,73.43,58.02,73.39,58.3,73.39z"/>
	<path class="st1" d="M61.32,71.4c-3.31,0-6.01-2.7-6.01-6.01c0-3.31,2.7-6.01,6.01-6.01s6.01,2.7,6.01,6.01
		C67.32,68.7,64.63,71.4,61.32,71.4z M61.32,61.59c-2.09,0-3.8,1.7-3.8,3.8s1.7,3.8,3.8,3.8c2.09,0,3.8-1.7,3.8-3.8
		S63.41,61.59,61.32,61.59z"/>
	<path class="st1" d="M70.79,24.14H25.65c-0.61,0-1.11-0.49-1.11-1.11s0.49-1.11,1.11-1.11h45.15c0.61,0,1.11,0.49,1.11,1.11
		S71.4,24.14,70.79,24.14z"/>
	<path class="st1" d="M70.79,31.46H25.65c-0.61,0-1.11-0.49-1.11-1.11s0.49-1.11,1.11-1.11h45.15c0.61,0,1.11,0.49,1.11,1.11
		S71.4,31.46,70.79,31.46z"/>
	<path class="st1" d="M70.79,38.79H25.65c-0.61,0-1.11-0.49-1.11-1.11c0-0.61,0.49-1.11,1.11-1.11h45.15c0.61,0,1.11,0.49,1.11,1.11
		C71.9,38.29,71.4,38.79,70.79,38.79z"/>
	<path class="st1" d="M70.79,46.11H25.65c-0.61,0-1.11-0.49-1.11-1.11c0-0.61,0.49-1.11,1.11-1.11h45.15c0.61,0,1.11,0.49,1.11,1.11
		C71.9,45.62,71.4,46.11,70.79,46.11z"/>
	<path class="st1" d="M42.75,73.47H28.24c-0.61,0-1.11-0.49-1.11-1.11c0-0.61,0.49-1.11,1.11-1.11h14.51c0.61,0,1.11,0.49,1.11,1.11
		C43.85,72.97,43.36,73.47,42.75,73.47z"/>
	<path class="st1" d="M40.81,63.66H26.3c-0.61,0-1.11-0.49-1.11-1.11s0.49-1.11,1.11-1.11h14.51c0.61,0,1.11,0.49,1.11,1.11
		S41.42,63.66,40.81,63.66z"/>
</g>
</svg>
