<?xml version="1.0" encoding="utf-8"?>
<!-- Generator: Adobe Illustrator 25.2.0, SVG Export Plug-In . SVG Version: 6.00 Build 0)  -->
<svg version="1.1" id="Layer_1" xmlns="http://www.w3.org/2000/svg" xmlns:xlink="http://www.w3.org/1999/xlink" x="0px" y="0px"
	 viewBox="0 0 101.75 87.59" style="enable-background:new 0 0 101.75 87.59;" xml:space="preserve">
<style type="text/css">
	.st0{fill:#214C65;stroke:#214C65;stroke-width:0.2832;stroke-miterlimit:10;}
	.st1{fill:#214C65;stroke:#214C65;stroke-width:0.5;stroke-miterlimit:10;}
	.st2{fill:#214C65;stroke:#214C65;stroke-width:0.75;stroke-miterlimit:10;}
</style>
<g>
	<path class="st0" d="M69.36,20.42c-0.87,0-1.73-0.24-2.51-0.72l-6.94-4.27c-0.63-0.39-0.83-1.22-0.44-1.85
		c0.39-0.63,1.21-0.83,1.85-0.44l6.94,4.27c0.67,0.41,1.48,0.43,2.17,0.03c0.68-0.4,1.08-1.1,1.06-1.89l-0.23-8.23
		c-0.02-0.74,0.56-1.36,1.3-1.38c0.78-0.06,1.36,0.56,1.38,1.3l0.23,8.23c0.05,1.79-0.85,3.4-2.4,4.3
		C71,20.2,70.18,20.42,69.36,20.42z"/>
	<path class="st0" d="M80.52,39.5c-0.06,0-0.11,0-0.17-0.01C64.94,37.58,57.97,27.05,57.69,26.6c-0.4-0.62-0.22-1.45,0.4-1.86
		c0.62-0.4,1.45-0.22,1.86,0.4c0.06,0.1,6.62,9.93,20.75,11.68c0.74,0.09,1.26,0.76,1.17,1.5C81.77,39.01,81.19,39.5,80.52,39.5z"/>
	<path class="st0" d="M77.26,54.92c-0.11,0-0.22-0.01-0.32-0.04C54.09,49.22,53.3,35.51,53.27,34.93c-0.03-0.74,0.55-1.37,1.29-1.39
		c0.71-0.07,1.36,0.54,1.39,1.28c0.03,0.52,0.89,12.32,21.63,17.46c0.72,0.18,1.16,0.91,0.98,1.63
		C78.41,54.51,77.87,54.92,77.26,54.92z"/>
	<path class="st0" d="M70.34,81.67H42.25c-3.27,0-6.46-1.14-8.98-3.2c-2.12-1.73-4.91-2.76-7.87-2.91
		c-9.97-0.5-16.9-3.68-20.59-9.45c-6.06-9.47-1.05-22.26-0.83-22.8c0.24-0.59,0.85-0.94,1.48-0.82c0.63,0.11,1.09,0.65,1.11,1.28
		C6.98,58.73,20.64,64.35,26.5,66.08c0.39,0.12,0.8,0.06,1.15-0.15c0.37-0.22,0.64-0.61,0.73-1.05c0.6-2.94,1.88-5.56,3.62-7.36
		l16.9-17.53c6.69-6.94,10.37-16.07,10.37-25.7c0-0.48,0.25-0.92,0.66-1.16l11.98-7.01c0.46-0.27,1.02-0.24,1.46,0.06l13,9.22
		c1.3,0.92,3.35,2,5.64,1.94c2.1-0.05,4.08,0.71,5.58,2.17c1.51,1.47,2.35,3.46,2.35,5.58v0.17c0,3.73-2.95,7.19-6.57,7.71
		c-1.19,0.17-2.4,0.4-3.61,0.69C83.19,35.2,78.6,41.05,78.6,47.86V73.4C78.6,77.96,74.9,81.67,70.34,81.67z M4.9,50.39
		c-0.66,4.18-0.72,9.77,2.17,14.28c3.2,4.99,9.41,7.75,18.46,8.2c3.53,0.18,6.88,1.43,9.43,3.52c2.08,1.7,4.6,2.6,7.29,2.6h28.09
		c3.08,0,5.58-2.5,5.58-5.58V47.86c0-8.06,5.44-14.98,13.22-16.82c1.28-0.3,2.57-0.55,3.84-0.73c2.32-0.34,4.27-2.65,4.27-5.05
		v-0.17c0-1.4-0.54-2.7-1.53-3.66c-0.98-0.95-2.27-1.45-3.64-1.41c-2.43,0.07-4.93-0.77-7.27-2.43L72.52,8.87l-10.57,6.19
		c-0.19,10.05-4.12,19.54-11.12,26.79l-16.9,17.53C32.56,60.8,31.49,63,31,65.42c-0.24,1.18-0.96,2.2-1.97,2.82
		c-1,0.6-2.17,0.75-3.29,0.42C20.24,67.04,8.45,62.25,4.9,50.39z"/>
	<path class="st0" d="M67.59,81.67c-0.74,0-1.34-0.6-1.34-1.34V61.43c0-0.74,0.6-1.34,1.34-1.34c0.74,0,1.34,0.6,1.34,1.34v18.89
		C68.93,81.06,68.33,81.67,67.59,81.67z"/>
</g>
</svg>
