<?xml version="1.0" encoding="utf-8"?>
<!-- Generator: Adobe Illustrator 25.2.0, SVG Export Plug-In . SVG Version: 6.00 Build 0)  -->
<svg version="1.1" id="Layer_1" xmlns="http://www.w3.org/2000/svg" xmlns:xlink="http://www.w3.org/1999/xlink" x="0px" y="0px"
	 viewBox="0 0 213.9 69.5" style="enable-background:new 0 0 213.9 69.5;" xml:space="preserve">
<style type="text/css">
	.st0{fill:#219649;}
	.st1{fill:#0075AB;}
	.st2{fill:#1175AA;}
	.st3{fill:#BDBFC1;}
	.st4{fill:#848588;}
	.st5{fill:#BEC0C2;}
	.st6{fill:#BEC0C1;}
	.st7{fill:#BEBFC1;}
	.st8{fill:#C2C3C4;}
	.st9{fill:#BFC0C2;}
	.st10{fill:#8C8D8F;}
	.st11{fill:#979899;}
	.st12{fill:#BBB9BA;}
	.st13{fill:#ABAAAC;}
	.st14{fill:#FDFDFE;}
	.st15{fill:#FFFFFF;}
	.st16{fill:#FDFEFF;}
	.st17{fill:#FEFFFF;}
	.st18{fill:#87898C;}
	.st19{fill:#878B90;}
	.st20{fill:#BEC1C4;}
	.st21{fill:#B6BFC6;}
	.st22{fill:#E3E6EA;}
	.st23{fill:#9A9C9E;}
	.st24{fill:#F4F3F3;}
</style>
<path id="Path_45" class="st0" d="M116.7,39.1c-4-0.7-8-0.3-12.1-0.4c-0.8,0-0.8,0.5-0.8,1.1c0,1.5,0,2.9,0,4.7
	c-3.9-4.8-8.6-6.8-14.3-6.3c-5.8,0.5-9.9,3.7-12.7,8.9c-0.7-1.5-1.6-2.9-2.7-4.1c-4.5-4.9-12.1-6.6-19-3c-0.3,0-0.4,0.2-0.6,0.4
	c-3.2,2.1-5.6,4.8-6.5,8.5c-0.3,1.1-0.8,1.3-1.8,1.2c-3.1,0-6.2,0-9.2,0c-1,0-1.3,0.2-1.3,1.2c0,1.6,0,3.3-0.2,4.9
	c-0.1,0.9,0.3,1.1,1.1,1.1c1,0,2,0,3,0c0.5,0,1.3-0.2,1.1,0.7c-0.1,0.8,0.7,1.9-0.6,2.4c-3.1,1.2-7.3-0.2-8.9-3
	c-1.9-3.1-1.2-7.8,1.4-10c0.9-0.8,2-1.2,3.2-1.4c2.5-0.4,5.1,0.4,7,2.2c0.7,0.6,1.1,0.6,1.6-0.2c1-1.4,2.2-2.8,3.3-4.2
	c0.6-0.7,0.6-1.1-0.1-1.8c-7.2-7-22.2-5.1-25.5,7c-0.1,0.5-0.9,4.8-0.5,7.1c0.2,1.6,1,6.2,4.7,9.5c4.1,3.7,9.4,3.3,14.4,3
	c2.2-0.3,4.4-0.9,6.4-1.9c1-0.3,1.8-1,2.2-1.9c0.3-0.7,0.3-1.6,0-2.9c1.1,1.7,2.5,3.1,4.1,4.2c1.9,1.3,4.1,2.1,6.4,2.4
	c1.8,0.3,3.6,0.3,5.4,0c1.9-0.2,3.8-0.8,5.4-1.7c2.7-1.5,4.8-3.8,6.2-6.5c1.1,2.1,2.6,3.9,4.4,5.3c1.9,1.4,4.2,2.4,6.6,2.9
	c1.9,0.3,3.8,0.3,5.7,0c1.3-0.3,2.7-0.7,3.9-1.3c2.4-1.2,4.6-2.9,6.3-5c0,1.8,0,3.3,0,4.8c0,0.7,0.2,1,0.9,0.9
	c3.8-0.1,7.6,0.2,11.3-0.3c7.3-0.9,11.8-5.1,12.6-12.1C129.5,48,126.8,40.8,116.7,39.1z M49.2,61.9C49.1,62.1,49.2,61.8,49.2,61.9
	C49.2,61.9,49.2,61.9,49.2,61.9L49.2,61.9z M69.6,53.5c-0.1,4.3-3,7.3-7.1,7.1s-6.9-3.2-6.7-7.5c0.1-4.3,3-7.2,7.1-7.1
	C66.9,46.1,69.7,49.2,69.6,53.5L69.6,53.5z M91.1,60.6c-4.1,0-6.9-3-6.9-7.3c0-4.3,2.8-7.3,6.9-7.3c4.1,0,6.9,3,6.9,7.3
	S95.1,60.6,91.1,60.6L91.1,60.6z M113.2,60.3c-0.9,0-1.1-0.4-1.1-1.1c0-2,0-4,0-5.9c0-1.9,0.1-3.9,0-5.8c-0.1-1.2,0.4-1.4,1.5-1.3
	c4.3,0.3,6.8,3,6.7,7.3C120.2,57.7,117.5,60.3,113.2,60.3L113.2,60.3z"/>
<path id="Path_46" class="st0" d="M213.2,51.2c0-0.8-0.2-1.1-1.1-1.1c-3.7,0-7.5,0-11.2,0c-0.9,0-1.2,0.4-1.2,1.2
	c0,1.6-0.1,3.3-0.2,4.9c-0.1,0.9,0.3,1.1,1.1,1.1c1.1-0.1,2.2,0,3.3,0c0.4,0,0.8-0.1,0.9,0.5c0.5,1.9,0,2.7-2,2.9
	c-0.7,0.1-1.4,0.1-2.1,0c-2.8-0.1-5.3-1.9-6.2-4.6c-1.1-3.1-0.3-6.7,1.9-8.5c0.9-0.8,2.1-1.3,3.4-1.5c2.6-0.4,5.1,0.4,7,2.2
	c0.7,0.6,1.1,0.6,1.6-0.2c1-1.4,2-2.7,3.2-3.9c0.8-0.9,0.8-1.4-0.1-2.2c-6.9-6.2-18.5-4.7-23.5,3.1c-0.2,0.3-0.3,0.8-0.9,1
	c-3.1-5.1-7.6-7.9-13.6-8c-6.1,0-10.6,2.8-13.8,7.9c-2.3-4.1-5.8-6-10-6.9c-4.2-0.8-8.4-0.3-12.6-0.5c-0.9,0-0.8,0.5-0.8,1.1V48
	c0,6.2,0,12.5,0,18.7c0,0.7-0.2,1.4,0.9,1.4c3.7-0.1,7.5,0.2,11.2-0.3c4.1-0.6,7.7-2,10.3-5.4c0.4-0.5,0.5-1.2,1.1-1.5
	c0.9,1.5,3.2,5.1,7.3,6.8c1.2,0.5,2.5,0.8,3.7,1c1.7,0.2,3.4,0.2,5.1,0c1.2-0.1,2.4-0.4,3.6-0.8c3.2-1.2,5.7-3.6,7.8-6.5
	c2.3,3.2,5.6,5.6,9.4,6.7c3.2,0.7,6.5,0.8,9.7,0c0.8-0.2,1.6-0.4,2.4-0.7c1.3-0.4,2.5-1,3.7-1.7c0.6-0.2,0.9-0.8,0.9-1.4
	C213.2,60,213.2,55.6,213.2,51.2z M145.6,60.4c-0.8,0-1-0.4-1-1.1c0-2,0-4,0-6.1c0-2,0-4,0-5.9c0-0.8,0.2-1.1,1.1-1.1
	c4.3,0,7.1,2.8,7.1,7.2C152.8,57.7,149.9,60.4,145.6,60.4z M173.5,60.7c-4.1,0-6.9-3-6.9-7.3c0-4.3,2.8-7.3,6.9-7.3
	c4.1,0,6.9,3,6.9,7.3C180.4,57.7,177.5,60.7,173.5,60.7L173.5,60.7z"/>
<path id="Path_47" class="st1" d="M45.4,23.5c-0.3,4.3-3.7,7.9-8.4,8.8c-4.6,0.9-9.3-0.3-12.9-3.2c-1.3-1-1.9-2.5-2.6-3.9
	c-0.4-0.5-0.6-1.1-0.8-1.7c0-0.1-0.1-0.2-0.1-0.3c0-0.1,0-0.1-0.1-0.2c-0.5-1.3-1.6-1.6-2.9-1.8c-0.9-0.1-1.8-0.2-2.7-0.1
	c-0.4,0-0.8,0-1.2,0c-0.4,0-0.8-0.2-1.2-0.3c-0.1,0-0.2-0.1-0.2-0.2c0,0-0.1-0.1-0.1-0.1c-0.2-0.2-0.4-0.5-0.9-0.2c0,0,0,0,0,0
	c-0.1,0-0.1,0-0.2,0c-0.4,0-0.8-0.1-1.2-0.3h0c-0.1,0-0.1,0-0.2-0.1c-0.3-0.2-0.6-0.4-0.8-0.7c-1.7-1.1-3.1-2.7-4.1-4.4
	c-0.9-1.4-1.3-3-0.9-4.7C4.5,7.5,6.3,6.7,8.7,8c1.5,0.5,1.4,2,2.1,3c0,0,0,0,0,0.1l0,0.1c0,0.5,0,1,0.6,1.1h0c0.1,0,0.3,0,0.4,0
	c1.8,1.7,4.1,2.1,6.5,2.1c1.7,0,3.4,0.4,5,1.1c1.4,0.6,2.5,1.6,3.2,3c0,0,0,0,0,0l0,0c0,0,0,0.1,0.1,0.1c0.3,0.6,0.6,1.2,0.9,1.9
	c0.1,0.1,0.2,0.2,0.2,0.4c0.1,0.1,0.2,0.2,0.3,0.4c1.4,1.6,3,2.9,5.2,3.1c0.2,0,0.4,0,0.6,0c0.9-0.1,2,0,2.2-1.1s-0.9-1.3-1.7-1.5
	c-2.3-0.7-4.6-1.3-6.7-2.7c0,0,0,0,0,0c0,0-0.1-0.1-0.1-0.1c-0.3-0.2-0.5-0.4-0.8-0.7c-0.1-0.1-0.3-0.2-0.4-0.4
	c-0.1-0.1-0.2-0.2-0.3-0.2c-0.5-0.6-1-1.2-1.3-1.9c0,0,0,0,0,0c0-0.1-0.1-0.2-0.1-0.4c-0.2-0.5-0.2-1-0.2-1.5
	c-0.1-1.3-0.1-2.7,0.1-4c0.8-4.1,3.9-6.9,8.6-7.5c3.9-0.6,8,0.5,11.1,2.9C45,5.8,45,6.2,44.4,6.9c-1.2,1.3-2.3,2.8-3.3,4.2
	c-0.5,0.7-0.9,0.8-1.5,0.1C38.4,10,36.7,9.4,35,9.6c-0.8,0.1-1.5,0.4-1.7,1.2c-0.2,0.9,0.6,1.3,1.3,1.5c1.2,0.4,2.5,0.8,3.7,1.1
	C43.4,15.2,45.8,18.5,45.4,23.5z"/>
<path id="Path_48" class="st1" d="M119.5,17.2c0,4.5-0.1,8.9,0,13.4c0,1.4-0.4,1.7-1.7,1.6c-1.7-0.1-3.5-0.1-5.2,0
	c-1.1,0.1-1.6-0.2-1.5-1.5c0.1-2.9,0-5.8,0.1-8.8c0-1-0.2-1.4-1.3-1.4c-1.5,0.1-3.1,0.1-4.6,0c-1,0-1.3,0.4-1.2,1.3c0,3,0,5.9,0,8.9
	c0,1-0.3,1.4-1.3,1.3c-1.9-0.1-3.9,0-5.8,0c-0.9,0-1.2-0.2-1.2-1.2c0-9.2,0-18.4,0-27.6c0-0.9,0.2-1.2,1.2-1.2c2,0.1,4.1,0,6.1,0
	c0.9,0,1.1,0.3,1.1,1.1c0,2.8,0,5.6,0,8.3c0,0.9,0.2,1.3,1.3,1.3c1.5-0.1,3.1-0.1,4.6,0c1,0,1.3-0.2,1.3-1.2c-0.1-2.7,0-5.4,0-8
	c0-1.1,0.3-1.5,1.4-1.4c1.9,0.1,3.8,0.1,5.7,0c1.1-0.1,1.3,0.4,1.3,1.4C119.5,8.1,119.5,12.7,119.5,17.2z"/>
<path id="Path_49" class="st2" d="M71.5,13.4c0,2.4-0.1,4.8,0,7.1c0.3,8.6-5.1,12.2-12.9,11.9c-1.5,0-3-0.3-4.4-0.8
	c-4.1-1.5-6.5-4.4-6.6-8.6c-0.2-6.4-0.1-12.8-0.1-19.2c0-0.7,0.2-1,0.9-1c2.1,0,4.3,0.1,6.4,0c1.1,0,1,0.6,1,1.4c0,4.8,0,9.6,0,14.4
	c0,0.7,0,1.4,0.1,2.1c0.2,2.5,1.3,3.6,3.6,3.6s3.5-1.1,3.6-3.6c0.1-5.4,0.1-10.8,0-16.2c0-1.3,0.3-1.8,1.7-1.7
	c1.8,0.1,3.6,0.1,5.4,0c1.2-0.1,1.4,0.4,1.4,1.4C71.4,7.4,71.5,10.4,71.5,13.4z"/>
<path id="Path_50" class="st1" d="M140.8,0.5c-0.9,1.7-1.7,3.1-2.4,4.5c-4.6,8.7-9.1,17.4-13.7,26c-0.5,1-0.5,1.3,0.8,1.3
	c2.2,0,4.5,0,6.7,0.1c0.7,0.1,1.4-0.3,1.6-1c0.6-1.3,1.2-2.6,1.8-3.9c0.2-0.6,0.7-1,1.3-0.9c2.5,0,5,0,7.5,0c0.7-0.1,1.4,0.4,1.6,1
	c0.6,1.3,1.2,2.6,1.8,3.9c0.2,0.5,0.4,0.9,1.1,0.9c2.8,0,5.6,0,8.8,0C151.9,21.7,146.4,11.2,140.8,0.5z M142,20c-0.9,0-1.9,0-2.8,0
	c-0.6,0-0.8-0.2-0.6-0.8c0.6-1.3,1.2-2.5,1.9-4.1c0.7,1.6,1.3,2.8,2,4.1C142.8,19.8,142.6,20,142,20L142,20z"/>
<path id="Path_51" class="st1" d="M93.7,22.7c0,2.6-0.1,4.9,0,7.2c0.1,0.8-0.4,1.7-1.2,1.8c-7.1,2.6-15-0.9-17.8-7.9
	c-3.1-7.6-0.8-17.7,8.7-21.1c2.9-1,6.1-1.1,9.1-0.2c0.7,0.1,1.3,0.8,1.2,1.5c0,0,0,0,0,0.1c-0.1,2.1,0,4.2,0,6.2
	c0,1-0.1,1.4-1.2,0.7c-1.2-0.9-2.7-1.3-4.2-1.2c-3.1,0.3-5.2,2-6,4.8c-0.9,3.2,0,6.7,2.2,8.4c2.3,1.8,5.3,1.9,8.1,0.3
	C92.8,23.2,93,23,93.7,22.7z"/>
<path id="Path_52" class="st3" d="M8.4,26.4c-3.3-0.8-5.9-2.5-7.2-5.8c-0.3-0.6-0.3-1.3-0.1-1.9c0.5-1.5,1.5-1.9,2.8-1
	c1,0.7,1.9,1.5,2.9,2.3c0.6,0.4,1.1,1,2,0.9c0.4,0.5,0.1,0.8-0.2,1.2c-1.2,0.2-1.9-0.7-2.7-1.2c-0.8-0.5-1.5-1.2-2.2-1.7
	c-0.3-0.2-0.6-0.6-1-0.3c-0.4,0.3-0.3,0.7-0.2,1.1c0.4,1,1,1.9,1.8,2.7c0.5,0.5,1.1,1,1.7,1.4c1.4,0.9,1.4,0.9,1.9-0.7
	c0.2-0.5,0.4-1,0.9-0.2C8.8,24.2,9.2,25.4,8.4,26.4z"/>
<path id="Path_53" class="st3" d="M10.5,11.2c-0.6-1.1-0.9-2.4-1.9-3.2C9.3,7.2,8.9,6.3,9,5.5c0.1-1.6,1-2.9,2.4-2.9
	c1.5,0,1.9,1.1,2.2,2.3c0.2,0.9,0.1,1.9,0.8,2.6c0.1,0.1,0.1,0.3,0,0.4c0,0,0,0,0,0c-0.4,0.2-0.8,0.5-1.3,0.2c-0.5-0.9-0.5-2-0.8-3
	c-0.2-0.5-0.2-1.2-1-1.1c-0.6,0.1-0.9,0.6-0.9,1.2c-0.2,1.5,0.2,2.9,0.7,4.3c0.1,0.3,0.2,0.6,0.2,0.9C11.2,10.9,11,11.2,10.5,11.2z"
	/>
<path id="Path_54" class="st4" d="M8.4,26.3c0-1.2,0-2.4,0-3.6c-0.1-0.2-0.1-0.4,0-0.6c0,0,0,0,0,0L8.7,21L9,19.8
	c0.9,0.2,0.6,0.9,0.7,1.4c0.1,1.4-0.1,2.8,0.2,4.1c0.1,0.4,0,0.9-0.2,1.3c0.2,2.3,1.3,4.4,2.1,6.5c0.2,0.2,0.2,0.5,0,0.7
	C9.5,31.8,8.9,29.1,8.4,26.3z"/>
<path id="Path_55" class="st5" d="M21,23c0.3,0.6,0.5,1.3,0.6,2.1c-1.8-1.4-3.5-1.4-5.5-0.4c-1.2,0.7-2.4,1.1-3.8,1.3
	c-0.1,0.1-0.3,0.1-0.4,0c0,0,0,0,0-0.1c-0.2-0.3-0.1-0.6,0-0.9C14.8,23.8,17.6,22.1,21,23z"/>
<path id="Path_56" class="st6" d="M24.5,13.8l0.6,1.8c-0.2,0.1-0.4,0.1-0.6,0c-2-1.4-4.2-1.9-6.5-2.6c-0.8-0.1-1.5-0.5-2.2-0.9
	c-0.1-0.7,0.1-1.2,0.9-1.3c0.1,0.3,0.4,0.5,0.8,0.6C19.9,12.1,22.3,12.9,24.5,13.8z"/>
<path id="Path_57" class="st7" d="M14.4,8.3c0.1,1,0.6,1.9,1.4,2.6c0.2,0.5,0,1-0.4,1.3c-1.2-0.7-1.7-1.9-2.3-3c0-0.8,0.6-0.9,1.1-1
	L14.4,8.3z"/>
<path id="Path_58" class="st8" d="M9.5,25.5c-0.5-1.2-0.1-2.5-0.2-3.8c0-0.6,0.2-1.3-0.3-1.9c0-0.2,0-0.4,0-0.6l1,0.5
	c-0.1,0.7,0.3,1.5,1,1.7c0.2,0.3,0.1,0.7,0,1c-1.3,0.5-0.8,1.8-1.1,2.7C9.8,25.3,9.7,25.4,9.5,25.5z"/>
<path id="Path_59" class="st9" d="M12,26l0.3,0c-0.8,0.7-1.9,0-2.7,0.6c0-0.4-0.1-0.8-0.1-1.1l0.1-0.1c0.5-0.3,1-0.4,1.6-0.2
	C11.6,25.3,11.8,25.7,12,26z"/>
<path id="Path_60" class="st10" d="M15.3,12.1c0.2-0.4,0.4-0.8,0.5-1.2c0.3-0.2,0.6-0.6,1.1-0.5l-0.2,0.5l-0.8,1.2
	c0,0.4-0.1,0.9-0.6,0.8C15,12.8,15,12.4,15.3,12.1z"/>
<path id="Path_61" class="st11" d="M8.8,34.5c0-0.2,0-0.5,0-0.7c0.3,0.4,0.6,0.9,0.9,1.3c-0.1,0.2-0.3,0.4-0.6,0.4
	C9,35.2,8.9,34.9,8.8,34.5z"/>
<path id="Path_62" class="st12" d="M17.8,10.2c-0.3,0-0.4-0.1-0.3-0.2c0.1-0.1,0.3-0.2,0.5-0.2c0.1,0,0.2,0.1,0.3,0.1L17.8,10.2z"/>
<path id="Path_63" class="st13" d="M14.4,7.9c0-0.1,0-0.2,0-0.3h1.1l-1.1,0.7l0-0.1C14.2,8.1,14.2,8,14.3,8S14.3,7.9,14.4,7.9z"/>
<path id="Path_64" class="st14" d="M15.3,12.1c0,0.2-0.1,0.5,0.1,0.7l0.5-0.6c3.2,0.9,6.5,1.4,9.2,3.5l1.2,1.8c0,0.4,1.1,0.9,0,1.2
	c-1.6-2.9-4.3-3.7-7.3-3.9c-1.4,0-2.9-0.2-4.3-0.5c-1.3-0.3-2.4-1-3.2-2C11,11,11.6,9.9,13.2,9.1C14,10,14.7,11,15.3,12.1z"/>
<path id="Path_65" class="st15" d="M36.1,23.2c-0.2,1.1-1.3,1-2.2,1.1c-0.2,0-0.4,0-0.6,0c-2.2-0.2-3.8-1.5-5.2-3.1
	c-0.1-0.1-0.2-0.2-0.3-0.4c0-0.6,0-1.2,0-1.8c2,1.4,4.4,2,6.7,2.7C35.2,21.9,36.3,22.1,36.1,23.2z"/>
<path id="Path_66" class="st16" d="M34.9,21.4c-2.4-0.8-4.9-1.5-7.2-2.8c-0.1,0.1-0.1,0.1-0.2,0.2c-0.3,0.5-0.3,1.1-0.1,1.5
	c0.1,0.3,0.2,0.6,0.2,1c1.8,2,3.8,3.5,6.6,3.3c1,0,2.1-0.3,2.2-1.5C36.8,22,35.7,21.7,34.9,21.4z"/>
<path id="Path_67" class="st17" d="M21,23c-0.1,0.2-0.1,0.5-0.5,0.4c-2.1-0.9-3.8,0.1-5.7,0.8c-0.9,0.3-1.9,0.6-2.8,0.9
	c-0.7-0.8-0.4-1.8-0.3-2.7c0-0.2,0.1-0.3,0.2-0.5c1.8-1.4,4-1.2,6.1-1C19.5,20.9,20.6,21.4,21,23z"/>
<path id="Path_68" class="st18" d="M10.8,22.5l0.1-1.2c-0.1-0.5,0-0.9,0.5-1.1c0.2-0.3,0.3-0.9,0.7-0.8c0.5,0.1,0.1,0.7,0.2,1
	c0.2,0.6,0.1,1.3-0.3,1.8l0,0c-0.3,0.7-0.1,1.4-0.1,2.1c0,0.3,0.2,0.8-0.4,1C10.6,24.6,10.3,23.4,10.8,22.5z"/>
<path id="Path_69" class="st19" d="M13.2,9.1c-0.7,1-2,1.7-1.8,3.2c-1.2,0.3-0.7-0.7-0.9-1.2c0.3-0.1,0.5-0.4,0.5-0.6
	c0.1-1.2,1-2.2,2.1-2.3C13.5,8,14,7.9,14.4,7.9c0,0.1,0,0.2,0,0.3L13.2,9.1z"/>
<path id="Path_70" class="st20" d="M12,22.2c0.1-0.6-0.2-1.3,0.3-1.8c1.9,0.6,3.9,0,5.7,0.6C15.9,20.7,13.8,21.2,12,22.2z"/>
<path id="Path_71" class="st21" d="M27.7,20.7v0.6c-0.6-0.8-1.1-1.7-1.5-2.7c0.1-0.1,0.2-0.1,0.2-0.2l0,0c0-0.2,0-0.4-0.1-0.6
	c-0.1-0.1-0.1-0.3-0.1-0.4c0.5,0.4,1,0.8,1.4,1.2V19C27.7,19.6,27.7,20.2,27.7,20.7z"/>
<path id="Path_72" class="st22" d="M11.3,20.2c-0.2,0.4-0.3,0.8-0.5,1.1c-0.4,0-0.9,0.5-1.1,0c-0.3-0.5-0.2-1.2,0.2-1.6L11.3,20.2z"
	/>
<path id="Path_73" class="st15" d="M8.4,22.2c0,0.2,0,0.4,0,0.6c-0.5,0.7-0.1,1.6-0.4,2.6c-2.6-0.7-4.8-2.5-5.9-5
	c-0.4-0.6-0.3-1.4,0.3-1.9C3,17.8,3.4,18.6,3.9,19C5.3,20.2,6.8,21.3,8.4,22.2z"/>
<path id="Path_74" class="st17" d="M13.2,8.2c-0.9,0.6-1.6,1.4-2.1,2.3C10.2,9,9.8,7.2,9.9,5.4c0-0.9,0.3-1.7,1.4-1.8
	c1.1-0.1,1.2,0.8,1.3,1.5C12.8,6.2,13,7.2,13.2,8.2z"/>
<path id="Path_75" class="st23" d="M11.4,25.1c0.7-0.9-0.2-2.1,0.5-3l0,3c0,0.3,0,0.6,0,0.9c-0.3-0.1-0.5-0.3-0.6-0.6
	C11.3,25.3,11.3,25.2,11.4,25.1C11.4,25.1,11.4,25.1,11.4,25.1z"/>
<path id="Path_76" class="st24" d="M11.4,25.1c0,0.1,0,0.2-0.1,0.3H9.6c0-0.6,0-1.2,0-1.9c-0.1-0.9,0.4-1.2,1.2-1.1L11.4,25.1z"/>
</svg>
