<?xml version="1.0" encoding="utf-8"?>
<!-- Generator: Adobe Illustrator 25.2.0, SVG Export Plug-In . SVG Version: 6.00 Build 0)  -->
<svg version="1.1" id="Layer_1" xmlns="http://www.w3.org/2000/svg" xmlns:xlink="http://www.w3.org/1999/xlink" x="0px" y="0px"
	 viewBox="0 0 250.35 86.07" style="enable-background:new 0 0 250.35 86.07;" xml:space="preserve">
<style type="text/css">
	.st0{fill:#219649;}
	.st1{fill:#0075AB;}
	.st2{fill:#1175AA;}
	.st3{fill:#BDBFC1;}
	.st4{fill:#848588;}
	.st5{fill:#BEC0C2;}
	.st6{fill:#BEC0C1;}
	.st7{fill:#BEBFC1;}
	.st8{fill:#C2C3C4;}
	.st9{fill:#BFC0C2;}
	.st10{fill:#8C8D8F;}
	.st11{fill:#979899;}
	.st12{fill:#BBB9BA;}
	.st13{fill:#ABAAAC;}
	.st14{fill:#FDFDFE;}
	.st15{fill:#FFFFFF;}
	.st16{fill:#FDFEFF;}
	.st17{fill:#FEFFFF;}
	.st18{fill:#87898C;}
	.st19{fill:#878B90;}
	.st20{fill:#BEC1C4;}
	.st21{fill:#B6BFC6;}
	.st22{fill:#E3E6EA;}
	.st23{fill:#9A9C9E;}
	.st24{fill:#F4F3F3;}
</style>
<path id="Path_45" class="st0" d="M131.94,47.38c-3.99-0.67-8.04-0.26-12.06-0.37c-0.85-0.02-0.82,0.49-0.82,1.06
	c0.01,1.45,0,2.9,0,4.72c-3.89-4.75-8.59-6.84-14.29-6.28c-5.77,0.55-9.92,3.65-12.67,8.93c-0.69-1.5-1.6-2.89-2.71-4.11
	c-4.5-4.87-12.13-6.57-19.04-3.04c-0.27,0.01-0.42,0.21-0.59,0.38c-3.21,2.06-5.56,4.8-6.52,8.53c-0.28,1.09-0.79,1.26-1.76,1.24
	c-3.08-0.05-6.16,0.01-9.24-0.04c-0.95-0.01-1.32,0.25-1.3,1.25c0.02,1.63-0.03,3.27-0.17,4.9c-0.08,0.93,0.31,1.1,1.11,1.06
	c0.99-0.04,1.99-0.03,2.98,0c0.5,0.01,1.28-0.19,1.13,0.69c-0.13,0.82,0.69,1.94-0.64,2.44c-3.08,1.17-7.31-0.25-8.94-2.99
	c-1.86-3.12-1.2-7.81,1.4-9.95c0.93-0.76,2.05-1.25,3.24-1.4c2.55-0.36,5.13,0.44,7.03,2.17c0.7,0.59,1.07,0.58,1.63-0.17
	c1.05-1.44,2.18-2.83,3.35-4.17c0.63-0.72,0.57-1.13-0.12-1.79c-7.21-6.96-22.16-5.09-25.48,6.97c-0.14,0.5-0.91,4.78-0.54,7.13
	c0.25,1.57,0.99,6.22,4.69,9.5c4.13,3.67,9.36,3.32,14.42,2.99c2.21-0.26,4.37-0.89,6.37-1.86c0.95-0.33,1.75-0.99,2.24-1.87
	c0.34-0.73,0.31-1.64-0.02-2.92c1.09,1.66,2.5,3.08,4.14,4.2c1.91,1.28,4.09,2.12,6.37,2.45c1.78,0.27,3.59,0.27,5.37,0
	c1.9-0.24,3.75-0.82,5.45-1.71c2.67-1.49,4.84-3.75,6.22-6.48c1.06,2.09,2.58,3.92,4.45,5.33c1.94,1.45,4.19,2.43,6.57,2.86
	c1.87,0.35,3.8,0.35,5.67,0c1.34-0.28,2.65-0.73,3.88-1.33c2.45-1.2,4.61-2.92,6.33-5.03c0,1.84,0.02,3.31-0.01,4.78
	c-0.01,0.69,0.21,0.97,0.94,0.95c3.78-0.1,7.56,0.19,11.32-0.27c7.29-0.89,11.77-5.06,12.59-12.11
	C144.8,56.31,142.02,49.07,131.94,47.38z M64.46,70.23c-0.14,0.14-0.03-0.18,0.05-0.03C64.49,70.21,64.47,70.22,64.46,70.23
	L64.46,70.23z M84.88,61.8c-0.12,4.32-3.04,7.25-7.09,7.13s-6.87-3.25-6.73-7.5c0.14-4.35,2.99-7.2,7.09-7.11
	C82.19,54.41,85,57.53,84.88,61.8L84.88,61.8z M106.34,68.93c-4.07-0.01-6.87-3-6.86-7.33c0.01-4.35,2.79-7.28,6.9-7.28
	c4.06,0.01,6.91,3.02,6.89,7.31S110.39,68.94,106.34,68.93L106.34,68.93z M128.47,68.62c-0.91,0.01-1.07-0.36-1.06-1.14
	c0.04-1.98,0.01-3.96,0.01-5.93c0-1.93,0.07-3.86-0.03-5.78c-0.06-1.2,0.42-1.39,1.47-1.32c4.29,0.28,6.81,2.98,6.72,7.28
	C135.49,66,132.81,68.56,128.47,68.62L128.47,68.62z"/>
<path id="Path_46" class="st0" d="M228.49,59.52c0.01-0.85-0.24-1.1-1.09-1.09c-3.73,0.04-7.46,0.04-11.19,0
	c-0.95-0.01-1.17,0.37-1.17,1.22c0,1.64-0.06,3.27-0.19,4.9c-0.07,0.9,0.28,1.12,1.09,1.09c1.09-0.05,2.19-0.02,3.28-0.01
	c0.39,0,0.75-0.07,0.89,0.51c0.48,1.91-0.01,2.7-1.96,2.88c-0.69,0.06-1.39,0.07-2.09,0.02c-2.82-0.08-5.29-1.91-6.18-4.59
	c-1.05-3.09-0.27-6.66,1.87-8.52c0.94-0.82,2.11-1.35,3.35-1.51c2.55-0.37,5.13,0.43,7.04,2.16c0.69,0.58,1.07,0.62,1.63-0.16
	c0.98-1.37,2.04-2.69,3.17-3.94c0.81-0.89,0.77-1.41-0.15-2.23c-6.92-6.22-18.48-4.71-23.51,3.13c-0.22,0.35-0.31,0.83-0.85,1.05
	c-3.07-5.12-7.58-7.91-13.58-7.96c-6.05-0.05-10.57,2.79-13.84,7.9c-2.28-4.1-5.77-6.05-10.02-6.86c-4.19-0.8-8.43-0.35-12.65-0.48
	c-0.86-0.03-0.79,0.54-0.79,1.09v8.17c0,6.25,0,12.49,0,18.73c0,0.65-0.23,1.43,0.95,1.39c3.72-0.12,7.46,0.22,11.18-0.27
	c4.07-0.55,7.69-1.98,10.27-5.38c0.38-0.49,0.54-1.16,1.13-1.49c0.85,1.47,3.19,5.09,7.27,6.76c1.2,0.47,2.46,0.81,3.73,1
	c1.68,0.24,3.39,0.24,5.07,0c1.21-0.13,2.4-0.38,3.56-0.75c3.21-1.17,5.68-3.55,7.8-6.51c2.29,3.21,5.58,5.56,9.35,6.7
	c3.18,0.74,6.5,0.75,9.68,0.01c0.8-0.19,1.58-0.42,2.35-0.69c1.29-0.45,2.54-1.01,3.74-1.68c0.55-0.23,0.89-0.78,0.85-1.38
	C228.45,68.34,228.46,63.93,228.49,59.52z M160.89,68.65c-0.84-0.01-0.99-0.37-0.97-1.08c0.03-2.02,0.01-4.05,0.01-6.08
	c0-1.98,0.03-3.95-0.01-5.93c-0.02-0.83,0.23-1.11,1.1-1.11c4.32,0,7.13,2.84,7.08,7.24C168.04,65.99,165.2,68.71,160.89,68.65z
	 M188.73,68.96c-4.08-0.02-6.87-3.02-6.85-7.35c0.02-4.33,2.81-7.28,6.92-7.26c4.08,0.01,6.87,2.99,6.86,7.33
	C195.65,65.98,192.8,68.98,188.73,68.96L188.73,68.96z"/>
<path id="Path_47" class="st1" d="M60.71,31.75c-0.29,4.35-3.69,7.9-8.4,8.78c-4.56,0.91-9.28-0.26-12.89-3.19
	c-1.32-1.02-1.91-2.5-2.61-3.91c-0.36-0.52-0.62-1.09-0.78-1.7c-0.03-0.09-0.06-0.19-0.09-0.28c-0.02-0.07-0.04-0.13-0.06-0.19
	c-0.48-1.33-1.64-1.63-2.91-1.76c-0.9-0.14-1.81-0.17-2.71-0.1c-0.4,0.01-0.81-0.01-1.21-0.05c-0.42-0.05-0.84-0.16-1.23-0.33
	c-0.09-0.04-0.17-0.1-0.24-0.17c-0.03-0.03-0.07-0.07-0.1-0.1c-0.22-0.25-0.44-0.5-0.88-0.19c-0.01,0-0.03,0.01-0.04,0.01
	c-0.06,0.01-0.11,0.02-0.17,0.02c-0.41,0-0.81-0.09-1.19-0.26c0,0-0.01,0-0.01,0c-0.06-0.02-0.12-0.05-0.18-0.08
	c-0.3-0.17-0.56-0.42-0.75-0.71c-1.68-1.15-3.08-2.66-4.09-4.42c-0.93-1.36-1.27-3.05-0.93-4.66c0.54-2.62,2.37-3.46,4.71-2.21
	c1.47,0.47,1.44,1.96,2.07,3.01c0,0.02,0,0.05,0.01,0.07l0.01,0.14c0.03,0.5,0.05,1,0.61,1.07c0,0,0.01,0,0.01,0
	c0.14,0.01,0.27,0.01,0.41-0.01c1.83,1.68,4.1,2.09,6.46,2.09c1.73,0.02,3.44,0.39,5.03,1.07c1.38,0.57,2.51,1.63,3.17,2.97
	c0.01,0.01,0.01,0.03,0.02,0.04l0,0c0.02,0.04,0.04,0.08,0.06,0.12c0.28,0.63,0.59,1.25,0.93,1.86c0.08,0.13,0.16,0.25,0.25,0.37
	c0.1,0.13,0.2,0.25,0.31,0.36c1.41,1.6,3.02,2.85,5.23,3.1c0.2,0.04,0.39,0.05,0.59,0.05c0.89-0.06,2,0,2.2-1.08
	c0.2-1.08-0.9-1.31-1.66-1.55c-2.3-0.72-4.64-1.33-6.68-2.69c-0.02-0.01-0.03-0.02-0.05-0.03c-0.04-0.03-0.07-0.07-0.11-0.1
	c-0.26-0.22-0.53-0.44-0.79-0.66c-0.13-0.11-0.27-0.23-0.39-0.35c-0.09-0.08-0.18-0.17-0.26-0.25c-0.52-0.56-0.96-1.2-1.29-1.89
	c0,0,0,0,0-0.01c-0.04-0.12-0.09-0.25-0.13-0.37c-0.19-0.46-0.25-0.97-0.15-1.46c-0.13-1.33-0.1-2.68,0.08-4
	c0.82-4.09,3.92-6.88,8.57-7.5c3.94-0.6,7.95,0.46,11.07,2.93c0.74,0.57,0.77,0.94,0.18,1.63c-1.17,1.35-2.28,2.75-3.35,4.17
	c-0.51,0.68-0.87,0.75-1.51,0.14c-1.21-1.23-2.92-1.82-4.63-1.59c-0.79,0.1-1.52,0.37-1.67,1.22c-0.16,0.92,0.58,1.3,1.31,1.54
	c1.22,0.41,2.46,0.75,3.7,1.14C58.66,23.45,61.05,26.75,60.71,31.75z"/>
<path id="Path_48" class="st1" d="M134.77,25.54c0,4.46-0.06,8.92,0.03,13.37c0.03,1.36-0.41,1.69-1.68,1.62
	c-1.74-0.09-3.48-0.08-5.22,0.03c-1.14,0.06-1.56-0.23-1.52-1.45c0.09-2.92,0-5.84,0.05-8.76c0.02-0.99-0.2-1.44-1.3-1.38
	c-1.54,0.08-3.08,0.08-4.62,0c-1.03-0.05-1.26,0.38-1.24,1.3c0.04,2.97-0.03,5.94,0.04,8.91c0.02,1.05-0.32,1.37-1.35,1.34
	c-1.94-0.06-3.88-0.03-5.82,0.03c-0.89,0.03-1.23-0.23-1.23-1.16c0.03-9.21,0.03-18.42,0-27.63c0-0.88,0.25-1.23,1.18-1.21
	c2.04,0.05,4.08,0.03,6.11-0.03c0.88-0.03,1.1,0.32,1.09,1.13c-0.04,2.77,0.01,5.55-0.03,8.32c-0.01,0.94,0.25,1.33,1.27,1.28
	c1.54-0.08,3.08-0.07,4.62,0c0.96,0.04,1.3-0.25,1.28-1.24c-0.06-2.67,0.03-5.35-0.04-8.02c-0.03-1.11,0.3-1.48,1.43-1.43
	c1.89,0.08,3.78,0.06,5.67-0.03c1.09-0.05,1.32,0.36,1.31,1.35C134.75,16.43,134.77,20.99,134.77,25.54z"/>
<path id="Path_49" class="st2" d="M86.73,21.7c0,2.38-0.08,4.76,0.01,7.13c0.33,8.57-5.1,12.22-12.94,11.94
	c-1.49-0.04-2.97-0.31-4.38-0.79c-4.09-1.46-6.45-4.41-6.61-8.65c-0.25-6.38-0.1-12.77-0.14-19.16c0-0.68,0.21-0.99,0.94-0.97
	c2.14,0.03,4.28,0.06,6.41,0.01c1.1-0.02,1.02,0.65,1.02,1.37c-0.01,4.8-0.01,9.61,0,14.41c0,0.69,0,1.39,0.05,2.08
	c0.2,2.49,1.32,3.57,3.64,3.57s3.53-1.07,3.58-3.6c0.1-5.4,0.09-10.8,0.04-16.19c-0.01-1.29,0.3-1.76,1.65-1.66
	c1.79,0.11,3.58,0.12,5.37,0.02c1.16-0.06,1.42,0.37,1.4,1.45C86.69,15.65,86.73,18.68,86.73,21.7z"/>
<path id="Path_50" class="st1" d="M156.04,8.78c-0.89,1.67-1.66,3.1-2.41,4.54c-4.57,8.68-9.14,17.36-13.72,26.04
	c-0.54,1-0.47,1.34,0.77,1.32c2.23-0.03,4.47,0.04,6.71,0.14c0.7,0.1,1.37-0.33,1.57-1.01c0.55-1.33,1.22-2.61,1.76-3.93
	c0.17-0.59,0.74-0.96,1.34-0.88c2.49,0.03,4.98,0.04,7.46-0.01c0.71-0.07,1.36,0.37,1.57,1.05c0.57,1.32,1.21,2.61,1.82,3.91
	c0.21,0.46,0.41,0.87,1.06,0.87c2.82-0.02,5.64-0.01,8.83-0.01C167.12,29.96,161.64,19.49,156.04,8.78z M157.29,28.29
	c-0.94-0.01-1.88-0.01-2.82,0c-0.6,0.01-0.83-0.22-0.55-0.81c0.6-1.27,1.2-2.54,1.94-4.1c0.74,1.57,1.34,2.84,1.96,4.1
	C158.1,28.06,157.9,28.3,157.29,28.29L157.29,28.29z"/>
<path id="Path_51" class="st1" d="M108.96,30.98c0,2.63-0.06,4.9,0.03,7.17c0.14,0.85-0.41,1.66-1.25,1.83
	c-7.11,2.62-15.01-0.89-17.84-7.91c-3.08-7.6-0.81-17.72,8.68-21.07c2.93-1.04,6.11-1.12,9.08-0.22c0.74,0.09,1.27,0.76,1.18,1.5
	c0,0.02,0,0.04-0.01,0.05c-0.06,2.08-0.04,4.16,0.01,6.23c0.02,1.03-0.13,1.41-1.17,0.7c-1.22-0.88-2.72-1.3-4.22-1.17
	c-3.05,0.31-5.16,2.02-5.97,4.8c-0.94,3.19-0.02,6.66,2.23,8.4c2.31,1.8,5.28,1.91,8.09,0.3C108.03,31.46,108.28,31.34,108.96,30.98
	z"/>
<path id="Path_52" class="st3" d="M23.63,34.65c-3.3-0.8-5.87-2.51-7.19-5.76c-0.26-0.59-0.3-1.26-0.12-1.88
	c0.48-1.51,1.5-1.88,2.79-0.96c1,0.72,1.91,1.55,2.91,2.28c0.58,0.42,1.11,1.02,1.95,0.93c0.35,0.46,0.11,0.84-0.18,1.2
	c-1.21,0.25-1.86-0.73-2.71-1.24c-0.8-0.48-1.47-1.16-2.22-1.72c-0.3-0.22-0.6-0.63-1.03-0.29c-0.35,0.28-0.28,0.72-0.17,1.1
	c0.36,1.03,0.99,1.94,1.82,2.66c0.52,0.53,1.1,0.99,1.73,1.38c1.42,0.88,1.43,0.87,1.89-0.69c0.16-0.54,0.36-1.04,0.88-0.21
	C24.09,32.54,24.42,33.65,23.63,34.65z"/>
<path id="Path_53" class="st3" d="M25.8,19.45c-0.63-1.07-0.86-2.36-1.85-3.23c0.64-0.74,0.24-1.61,0.29-2.42
	c0.1-1.61,1.02-2.88,2.4-2.89c1.49-0.01,1.89,1.1,2.2,2.34c0.22,0.88,0.1,1.89,0.81,2.64c0.1,0.1,0.1,0.27,0,0.37
	c-0.01,0.01-0.02,0.02-0.03,0.03c-0.4,0.25-0.8,0.47-1.26,0.16c-0.55-0.91-0.5-1.99-0.83-2.96c-0.17-0.49-0.22-1.17-0.97-1.08
	c-0.62,0.08-0.85,0.62-0.94,1.18c-0.24,1.51,0.24,2.92,0.68,4.33c0.1,0.28,0.17,0.57,0.21,0.86C26.46,19.21,26.31,19.51,25.8,19.45z
	"/>
<path id="Path_54" class="st4" d="M23.63,34.64c0-1.2,0.01-2.41,0.01-3.61c-0.15-0.16-0.15-0.41,0.01-0.56
	c0.01-0.01,0.01-0.01,0.02-0.02l0.29-1.2l0.35-1.12c0.85,0.16,0.61,0.87,0.66,1.39c0.12,1.37-0.13,2.75,0.16,4.11
	c0.1,0.44,0.02,0.91-0.22,1.29c0.22,2.32,1.28,4.37,2.07,6.5c0.18,0.22,0.16,0.53-0.04,0.72C24.81,40.1,24.15,37.4,23.63,34.64z"/>
<path id="Path_55" class="st5" d="M36.23,31.34c0.33,0.65,0.53,1.35,0.59,2.08c-1.75-1.36-3.55-1.37-5.52-0.41
	c-1.16,0.67-2.43,1.11-3.75,1.3c-0.1,0.11-0.26,0.12-0.37,0.02c-0.02-0.02-0.03-0.04-0.05-0.06c-0.16-0.29-0.15-0.64,0.02-0.92
	C30.04,32.06,32.84,30.38,36.23,31.34z"/>
<path id="Path_56" class="st6" d="M39.81,22.13l0.57,1.77c-0.18,0.09-0.4,0.08-0.57-0.04c-1.96-1.35-4.25-1.88-6.48-2.56
	c-0.78-0.15-1.53-0.45-2.2-0.88c-0.15-0.73,0.08-1.21,0.9-1.27c0.14,0.32,0.43,0.55,0.78,0.61C35.2,20.41,37.53,21.2,39.81,22.13z"
	/>
<path id="Path_57" class="st7" d="M29.67,16.56c0.14,1,0.64,1.91,1.41,2.56c0.24,0.48,0.05,1.05-0.41,1.3
	c-1.17-0.68-1.68-1.86-2.28-2.98c0-0.76,0.62-0.86,1.14-1.05L29.67,16.56z"/>
<path id="Path_58" class="st8" d="M24.81,33.78c-0.46-1.24-0.12-2.54-0.23-3.8c-0.05-0.62,0.21-1.29-0.27-1.85
	c-0.01-0.21-0.03-0.42-0.04-0.63l0.96,0.48c-0.15,0.74,0.29,1.48,1.01,1.7c0.16,0.34,0.14,0.73-0.05,1.05
	c-1.3,0.54-0.76,1.8-1.09,2.73C25.04,33.61,24.94,33.72,24.81,33.78z"/>
<path id="Path_59" class="st9" d="M27.24,34.31l0.31,0.01c-0.77,0.68-1.87-0.04-2.66,0.61c-0.03-0.38-0.06-0.76-0.09-1.14l0.09-0.09
	c0.45-0.34,1.05-0.42,1.58-0.22C26.9,33.6,27.02,34,27.24,34.31z"/>
<path id="Path_60" class="st10" d="M30.56,20.37c0.17-0.42,0.35-0.83,0.52-1.25c0.33-0.25,0.63-0.57,1.1-0.46l-0.15,0.51l-0.84,1.22
	c0.01,0.42-0.07,0.9-0.57,0.79C30.22,21.09,30.31,20.67,30.56,20.37z"/>
<path id="Path_61" class="st11" d="M24.08,42.83c0.01-0.24,0.03-0.48,0.04-0.72c0.3,0.44,0.59,0.88,0.89,1.32
	c-0.11,0.23-0.34,0.37-0.59,0.38C24.31,43.47,24.19,43.15,24.08,42.83z"/>
<path id="Path_62" class="st12" d="M33.09,18.47c-0.28,0-0.4-0.13-0.31-0.25c0.12-0.13,0.28-0.21,0.45-0.23
	c0.1-0.02,0.23,0.09,0.34,0.14L33.09,18.47z"/>
<path id="Path_63" class="st13" d="M29.64,16.16c0-0.09,0-0.17,0-0.26h1.12l-1.1,0.66l-0.04-0.1c-0.11-0.07-0.14-0.14-0.1-0.2
	S29.61,16.16,29.64,16.16z"/>
<path id="Path_64" class="st14" d="M30.56,20.37c-0.01,0.23-0.12,0.47,0.09,0.67l0.55-0.65c3.19,0.85,6.49,1.39,9.18,3.52l1.19,1.79
	c0.04,0.42,1.08,0.87-0.05,1.25c-1.61-2.86-4.33-3.71-7.35-3.92c-1.43-0.03-2.86-0.18-4.26-0.46c-1.26-0.3-2.4-0.98-3.25-1.95
	c-0.4-1.33,0.21-2.41,1.81-3.21C29.31,18.29,30.01,19.28,30.56,20.37z"/>
<path id="Path_65" class="st15" d="M51.35,31.49c-0.2,1.08-1.31,1.02-2.2,1.08c-0.2,0-0.4-0.02-0.59-0.05
	c-2.21-0.25-3.83-1.5-5.23-3.1c-0.11-0.12-0.22-0.24-0.31-0.36c0-0.6,0-1.2,0-1.79c2.04,1.36,4.38,1.97,6.68,2.69
	C50.45,30.18,51.55,30.41,51.35,31.49z"/>
<path id="Path_66" class="st16" d="M50.16,29.74c-2.44-0.8-4.91-1.51-7.15-2.8c-0.06,0.06-0.11,0.12-0.16,0.18
	c-0.32,0.46-0.35,1.06-0.09,1.55c0.12,0.31,0.21,0.62,0.25,0.95c1.75,2.03,3.81,3.46,6.63,3.32c1-0.05,2.11-0.26,2.25-1.5
	C52.02,30.31,50.99,30.01,50.16,29.74z"/>
<path id="Path_67" class="st17" d="M36.23,31.34c-0.07,0.23-0.12,0.53-0.47,0.37c-2.06-0.92-3.84,0.15-5.69,0.77
	c-0.93,0.31-1.87,0.62-2.8,0.93c-0.68-0.84-0.39-1.79-0.3-2.72c0.05-0.16,0.14-0.32,0.25-0.45c1.83-1.42,3.95-1.17,6.05-1.03
	C34.78,29.19,35.9,29.72,36.23,31.34z"/>
<path id="Path_68" class="st18" d="M26.05,30.76l0.07-1.16c-0.09-0.49-0.04-0.92,0.49-1.15c0.22-0.29,0.27-0.89,0.7-0.8
	c0.48,0.1,0.14,0.66,0.24,1c0.17,0.62,0.08,1.28-0.27,1.82l-0.04-0.02c-0.3,0.68-0.07,1.4-0.15,2.1c-0.04,0.35,0.16,0.79-0.37,0.95
	C25.89,32.86,25.61,31.72,26.05,30.76z"/>
<path id="Path_69" class="st19" d="M28.48,17.4c-0.74,1-1.99,1.7-1.81,3.21c-1.17,0.27-0.7-0.68-0.87-1.16
	c0.27-0.11,0.47-0.35,0.52-0.64c0.06-1.19,0.96-2.16,2.14-2.32c0.35-0.22,0.77-0.34,1.18-0.33c0,0.1,0,0.2-0.01,0.3L28.48,17.4z"/>
<path id="Path_70" class="st20" d="M27.28,30.47c0.06-0.61-0.21-1.27,0.27-1.82c1.86,0.63,3.85-0.02,5.72,0.56
	C31.19,29.03,29.11,29.47,27.28,30.47z"/>
<path id="Path_71" class="st21" d="M43,29.04v0.58c-0.62-0.82-1.12-1.72-1.47-2.69c0.1-0.06,0.18-0.14,0.22-0.24l0,0
	c0.05-0.2,0.01-0.41-0.1-0.58c-0.07-0.13-0.1-0.28-0.07-0.42c0.47,0.42,0.95,0.83,1.42,1.25v0.31C43,27.85,43,28.45,43,29.04z"/>
<path id="Path_72" class="st22" d="M26.61,28.45c-0.16,0.38-0.33,0.76-0.49,1.15c-0.39,0.05-0.88,0.52-1.14-0.04
	c-0.31-0.51-0.2-1.18,0.25-1.57L26.61,28.45z"/>
<path id="Path_73" class="st15" d="M23.67,30.46c-0.01,0.19-0.02,0.39-0.03,0.58c-0.55,0.74-0.08,1.65-0.41,2.56
	c-2.62-0.71-4.79-2.55-5.9-5.02c-0.39-0.62-0.27-1.42,0.27-1.91c0.69-0.54,1.11,0.27,1.58,0.64C20.57,28.5,22.07,29.56,23.67,30.46z
	"/>
<path id="Path_74" class="st17" d="M28.46,16.49c-0.87,0.61-1.6,1.4-2.14,2.32c-0.83-1.56-1.23-3.31-1.15-5.08
	c0.04-0.91,0.34-1.67,1.38-1.79c1.14-0.13,1.2,0.76,1.34,1.53C28.09,14.48,28.27,15.49,28.46,16.49z"/>
<path id="Path_75" class="st23" d="M26.69,33.42c0.69-0.9-0.17-2.08,0.55-2.97l0.03,2.96c-0.01,0.3-0.02,0.6-0.03,0.9
	c-0.28-0.11-0.51-0.33-0.62-0.62c-0.06-0.08-0.05-0.2,0.04-0.26C26.67,33.43,26.68,33.42,26.69,33.42z"/>
<path id="Path_76" class="st24" d="M26.69,33.42c-0.03,0.09-0.05,0.18-0.07,0.28h-1.73c-0.01-0.62,0.02-1.25-0.04-1.86
	c-0.09-0.93,0.37-1.2,1.2-1.07L26.69,33.42z"/>
</svg>
