<?xml version="1.0" encoding="utf-8"?>
<!-- Generator: Adobe Illustrator 25.2.0, SVG Export Plug-In . SVG Version: 6.00 Build 0)  -->
<svg version="1.1" id="Layer_1" xmlns="http://www.w3.org/2000/svg" xmlns:xlink="http://www.w3.org/1999/xlink" x="0px" y="0px"
	 viewBox="0 0 101.75 87.59" style="enable-background:new 0 0 101.75 87.59;" xml:space="preserve">
<style type="text/css">
	.st0{fill:#214C65;stroke:#214C65;stroke-width:0.2832;stroke-miterlimit:10;}
	.st1{fill:#214C65;stroke:#214C65;stroke-width:0.6528;stroke-miterlimit:10;}
	.st2{fill:#214C65;stroke:#214C65;stroke-width:0.75;stroke-miterlimit:10;}
	.st3{fill:#214C65;stroke:#214C65;stroke-width:1.0023;stroke-miterlimit:10;}
</style>
<g>
	<path class="st3" d="M67.56,84.34c-1.86,0-3.89-0.16-6.08-0.48c-6.98-1.01-14.05-1.01-21.03,0c-12.19,1.76-19.24-1.38-20.95-9.33
		c-1.3-6.05,1.7-9.36,5.17-13.19c3.12-3.44,6.65-7.34,8.6-14.41c3.93-14.23,17.58-13.99,17.72-14c0.08,0,13.97-0.23,17.66,14.01
		c1.86,7.15,5.43,11.06,8.59,14.51c3.47,3.79,6.47,7.07,5.18,13.08C81.02,81.05,76.03,84.34,67.56,84.34z M50.96,80.84
		c3.62,0,7.24,0.26,10.84,0.78c10.96,1.58,16.98-0.89,18.41-7.57c1.04-4.87-1.34-7.47-4.64-11.08c-3.17-3.46-7.11-7.77-9.11-15.47
		C63.22,35.04,51.48,35.18,50.99,35.2c-0.56-0.02-12.09-0.15-15.53,12.34c-2.09,7.58-5.98,11.88-9.1,15.32
		c-3.3,3.65-5.69,6.29-4.64,11.2c1.43,6.67,7.46,9.15,18.41,7.57C43.72,81.1,47.34,80.84,50.96,80.84z"/>
	<path class="st3" d="M35.56,29.63c-5.35,0-9.7-5.92-9.7-13.19s4.35-13.19,9.7-13.19c5.35,0,9.7,5.92,9.7,13.19
		S40.91,29.63,35.56,29.63z M35.56,5.52c-4.1,0-7.44,4.9-7.44,10.93s3.34,10.93,7.44,10.93c4.1,0,7.44-4.9,7.44-10.93
		S39.66,5.52,35.56,5.52z"/>
	<path class="st3" d="M16.93,56.44c-5.35,0-9.7-5.92-9.7-13.19c0-7.27,4.35-13.19,9.7-13.19c5.35,0,9.7,5.92,9.7,13.19
		C26.63,50.52,22.28,56.44,16.93,56.44z M16.93,32.32c-4.1,0-7.44,4.9-7.44,10.92c0,6.02,3.34,10.93,7.44,10.93
		c4.1,0,7.44-4.9,7.44-10.93C24.37,37.22,21.03,32.32,16.93,32.32z"/>
	<path class="st3" d="M66.19,29.63c-5.35,0-9.7-5.92-9.7-13.19s4.35-13.19,9.7-13.19c5.35,0,9.7,5.92,9.7,13.19
		S71.54,29.63,66.19,29.63z M66.19,5.52c-4.1,0-7.44,4.9-7.44,10.93s3.34,10.93,7.44,10.93c4.1,0,7.44-4.9,7.44-10.93
		S70.29,5.52,66.19,5.52z"/>
	<path class="st3" d="M84.82,56.44c-5.35,0-9.7-5.92-9.7-13.19c0-7.27,4.35-13.19,9.7-13.19c5.35,0,9.7,5.92,9.7,13.19
		C94.53,50.52,90.17,56.44,84.82,56.44z M84.82,32.32c-4.1,0-7.44,4.9-7.44,10.92c0,6.02,3.34,10.93,7.44,10.93
		c4.1,0,7.44-4.9,7.44-10.93C92.26,37.22,88.93,32.32,84.82,32.32z"/>
</g>
</svg>
