<?xml version="1.0" encoding="utf-8"?>
<!-- Generator: Adobe Illustrator 25.2.0, SVG Export Plug-In . SVG Version: 6.00 Build 0)  -->
<svg version="1.1" id="_x2014_ÎÓÈ_x5F_1" xmlns="http://www.w3.org/2000/svg" xmlns:xlink="http://www.w3.org/1999/xlink"
	 x="0px" y="0px" viewBox="0 0 12568.18 1148.08" style="enable-background:new 0 0 12568.18 1148.08;" xml:space="preserve">
<style type="text/css">
	.st0{opacity:0.215;}
	.st1{fill:#404040;}
</style>
<g id="Group_99" transform="translate(142.872 -457.089) rotate(15)" class="st0">
	<g id="Group_62" transform="translate(7.435 531.546)">
		<path id="Path_101" class="st1" d="M423.05,421.88c3.22-17.75-4.49-35.7-19.57-45.6c-36.55-24.48-105.23-47.23-148.9-28.62
			c-13.69,5.83-23.81,22.56-25.57,39.31c-0.08,10.23,2.03,20.35,6.2,29.69c3.47,9.85,9.24,18.73,16.84,25.89
			c5.07,4.09,13.4,8.55,15.28,13.2c1.69,4.71-1.59,13.59-2.64,20.01c-0.91,10.4,0.69,20.88,4.66,30.54
			c3.09,9.74,8.24,18.71,15.11,26.28c12.07,11.41,29.04,16.05,45.24,12.35C373.17,531.48,412.98,470.69,423.05,421.88z"/>
		<path id="Path_102" class="st1" d="M381.19,247.63c-16.44-9.46-35.55,3.09-46.26,15.41c-11.28,12.98-17.04,24.86-14.02,42.1
			c2.7,15.43,14.41,24.49,30.44,18.5c13.28-4.96,26.1-20.38,33.74-32.03C392.98,279.61,396.58,258.98,381.19,247.63z"/>
		<path id="Path_103" class="st1" d="M489.26,538.02c-6.32,17.87-29.01,20.79-45.16,18.43c-17.03-2.51-29.12-7.8-38.04-22.83
			c-7.99-13.47-5.01-27.95,11.07-33.84c13.3-4.89,33.07-1.52,46.45,2.34C477.36,506.07,493.54,519.37,489.26,538.02z"/>
		<path id="Path_104" class="st1" d="M494.22,295.5c-16.56-16.81-41.89-5.35-55.14,2.46c-16.14,9.49-34.55,24.85-33.34,45.52
			c2.38,41.16,68.41,15.71,85.33-1c6.02-5.55,10.21-12.81,11.99-20.81C504.39,312.27,503.59,309.48,494.22,295.5z"/>
		<path id="Path_105" class="st1" d="M540.09,406.59c-11.91-21.08-31.21-19.48-50.68-13.87c-15.23,4.39-36.8,11.54-44.94,26.24
			c-9.09,16.44,1.88,36.07,18.97,41.63c18.5,5.2,38.25,3.72,55.77-4.18C533.83,449.85,550.55,432.33,540.09,406.59z"/>
	</g>
	<g id="Group_63" transform="translate(105.598 501.26)">
		<path id="Path_106" class="st1" d="M939.99,262.4c3.22-17.75-4.49-35.71-19.57-45.61c-36.55-24.48-105.23-47.23-148.92-28.61
			c-13.68,5.82-23.81,22.56-25.56,39.3c-0.08,10.23,2.03,20.35,6.2,29.69c3.46,9.86,9.24,18.74,16.84,25.89
			c5.07,4.1,13.4,8.55,15.28,13.2c1.69,4.72-1.59,13.59-2.64,20.01c-0.92,10.4,0.68,20.87,4.64,30.54
			c3.1,9.74,8.26,18.71,15.13,26.28c12.07,11.42,29.04,16.05,45.24,12.36C890.11,372,929.92,311.22,939.99,262.4z"/>
		<path id="Path_107" class="st1" d="M898.14,88.12c-16.44-9.46-35.55,3.13-46.28,15.41c-11.28,12.98-17.03,24.88-14.01,42.1
			c2.7,15.43,14.41,24.49,30.44,18.5c13.28-4.94,26.1-20.37,33.74-32.01C909.91,120.13,913.53,99.51,898.14,88.12z"/>
		<path id="Path_108" class="st1" d="M1006.21,378.52c-6.32,17.88-29.01,20.81-45.16,18.43c-17.03-2.51-29.12-7.8-38.04-22.83
			c-7.99-13.47-5.01-27.94,11.07-33.84c13.3-4.9,33.07-1.52,46.45,2.34C994.31,346.57,1010.49,359.87,1006.21,378.52z"/>
		<path id="Path_109" class="st1" d="M1011.17,136.02c-16.56-16.83-41.89-5.37-55.14,2.44c-16.14,9.49-34.55,24.85-33.34,45.54
			c2.38,41.15,68.41,15.7,85.33-1.01c6.02-5.55,10.21-12.81,11.99-20.81C1021.34,152.79,1020.52,149.99,1011.17,136.02z"/>
		<path id="Path_110" class="st1" d="M1057.03,247.09c-11.91-21.08-31.21-19.47-50.68-13.87c-15.23,4.39-36.8,11.54-44.94,26.24
			c-9.09,16.45,1.88,36.08,18.97,41.65c18.51,5.19,38.25,3.71,55.77-4.19C1050.76,290.36,1067.5,272.83,1057.03,247.09z"/>
	</g>
	<g id="Group_64" transform="translate(153.884 430.05)">
		<path id="Path_111" class="st1" d="M1194.28-112.62c3.21-17.75-4.49-35.71-19.57-45.61c-36.55-24.48-105.23-47.21-148.9-28.61
			c-13.69,5.83-23.81,22.56-25.57,39.31c-0.08,10.22,2.03,20.34,6.2,29.68c3.47,9.86,9.26,18.74,16.87,25.9
			c5.07,4.09,13.4,8.55,15.28,13.2c1.69,4.71-1.59,13.57-2.64,20.01c-0.91,10.4,0.69,20.88,4.66,30.54
			c3.09,9.74,8.24,18.71,15.11,26.28c12.07,11.41,29.04,16.04,45.24,12.35C1144.4-3.01,1184.21-63.81,1194.28-112.62z"/>
		<path id="Path_112" class="st1" d="M1152.42-286.87c-16.44-9.47-35.55,3.06-46.26,15.41c-11.28,12.98-17.04,24.86-14.02,42.1
			c2.7,15.43,14.41,24.49,30.44,18.5c13.28-4.96,26.1-20.38,33.74-32.03C1164.21-254.89,1167.82-275.5,1152.42-286.87z"/>
		<path id="Path_113" class="st1" d="M1260.49,3.52c-6.32,17.87-29.01,20.79-45.16,18.43c-17.03-2.51-29.12-7.8-38.04-22.83
			c-7.99-13.47-5.01-27.95,11.07-33.84c13.3-4.89,33.07-1.52,46.45,2.34C1248.59-28.43,1264.77-15.13,1260.49,3.52z"/>
		<path id="Path_114" class="st1" d="M1265.46-239c-16.56-16.81-41.89-5.35-55.14,2.46c-16.14,9.49-34.55,24.85-33.34,45.52
			c2.38,41.16,68.41,15.67,85.33-1.01c6.02-5.55,10.2-12.8,11.99-20.79C1275.62-222.23,1274.82-225.02,1265.46-239z"/>
		<path id="Path_115" class="st1" d="M1311.32-127.93c-11.91-21.08-31.21-19.47-50.68-13.87c-15.23,4.39-36.8,11.55-44.94,26.25
			c-9.09,16.44,1.88,36.07,18.97,41.63c18.5,5.2,38.25,3.72,55.77-4.18C1305.05-84.65,1321.78-102.19,1311.32-127.93z"/>
	</g>
	<g id="Group_65" transform="translate(271.917 405.734)">
		<path id="Path_116" class="st1" d="M1815.85-240.67c3.23-17.75-4.48-35.72-19.57-45.61c-36.54-24.44-105.22-47.21-148.9-28.61
			c-13.68,5.83-23.81,22.56-25.56,39.31c-0.09,10.22,2.03,20.34,6.2,29.68c3.46,9.86,9.23,18.74,16.82,25.9
			c5.07,4.09,13.42,8.55,15.28,13.2c1.7,4.71-1.57,13.59-2.63,20.01c-0.92,10.4,0.68,20.87,4.64,30.54
			c3.1,9.74,8.26,18.7,15.13,26.28c12.07,11.41,29.03,16.05,45.22,12.35C1765.99-131.09,1805.78-191.87,1815.85-240.67z"/>
		<path id="Path_117" class="st1" d="M1774.01-414.92c-16.44-9.46-35.55,3.09-46.28,15.41c-11.28,12.98-17.03,24.86-14.01,42.08
			c2.7,15.44,14.41,24.5,30.44,18.52c13.28-4.96,26.09-20.38,33.73-32.03C1785.78-382.94,1789.4-403.55,1774.01-414.92z"/>
		<path id="Path_118" class="st1" d="M1882.06-124.53c-6.32,17.87-28.99,20.79-45.12,18.43c-17.03-2.51-29.12-7.8-38.04-22.83
			c-8.01-13.47-5.01-27.95,11.05-33.84c13.32-4.89,33.09-1.52,46.46,2.34C1870.18-156.49,1886.36-143.19,1882.06-124.53z"/>
		<path id="Path_119" class="st1" d="M1887.02-367.05c-16.56-16.81-41.89-5.35-55.14,2.46c-16.14,9.49-34.55,24.85-33.34,45.52
			c2.38,41.16,68.4,15.71,85.31-1.01c6.02-5.55,10.21-12.8,12-20.79C1897.21-350.28,1896.42-353.08,1887.02-367.05z"/>
		<path id="Path_120" class="st1" d="M1932.91-255.97c-11.91-21.09-31.21-19.48-50.68-13.89c-15.23,4.39-36.81,11.55-44.94,26.25
			c-9.1,16.44,1.88,36.07,18.97,41.63c18.5,5.2,38.25,3.72,55.77-4.18C1926.64-212.71,1943.38-230.24,1932.91-255.97z"/>
	</g>
	<g id="Group_66" transform="translate(388.25 444.476)">
		<path id="Path_121" class="st1" d="M2428.49-36.65c3.23-17.75-4.48-35.71-19.57-45.6c-36.54-24.49-105.22-47.23-148.9-28.62
			c-13.68,5.83-23.81,22.56-25.56,39.31c-0.09,10.23,2.03,20.35,6.2,29.69c3.46,9.85,9.23,18.73,16.83,25.89
			c5.07,4.09,13.42,8.55,15.28,13.2c1.7,4.71-1.57,13.59-2.63,20.01c-0.92,10.4,0.68,20.87,4.64,30.54
			c3.1,9.74,8.26,18.7,15.13,26.28c12.06,11.41,29.03,16.05,45.22,12.35C2378.62,72.94,2418.41,12.15,2428.49-36.65z"/>
		<path id="Path_122" class="st1" d="M2386.64-210.9c-16.44-9.46-35.57,3.09-46.28,15.41c-11.28,12.98-17.03,24.86-14.01,42.1
			c2.7,15.43,14.37,24.49,30.44,18.5c13.28-4.96,26.09-20.38,33.73-32.03C2398.42-178.92,2402.04-199.53,2386.64-210.9z"/>
		<path id="Path_123" class="st1" d="M2494.7,79.49c-6.32,17.87-28.99,20.79-45.12,18.43c-17.03-2.51-29.12-7.8-38.04-22.83
			c-8.01-13.47-5.01-27.95,11.05-33.84c13.32-4.89,33.07-1.52,46.46,2.34C2482.82,47.54,2498.99,60.84,2494.7,79.49z"/>
		<path id="Path_124" class="st1" d="M2499.68-163.02c-16.56-16.81-41.89-5.35-55.14,2.46c-16.14,9.49-34.55,24.85-33.35,45.52
			c2.4,41.16,68.41,15.71,85.33-1c6.02-5.55,10.21-12.81,11.99-20.81C2509.84-146.26,2509.03-149.05,2499.68-163.02z"/>
		<path id="Path_125" class="st1" d="M2545.55-51.94c-11.91-21.1-31.21-19.48-50.68-13.87c-15.23,4.39-36.81,11.54-44.94,26.24
			c-9.1,16.44,1.88,36.07,18.97,41.63c18.5,5.2,38.25,3.72,55.77-4.18C2539.26-8.68,2556-26.21,2545.55-51.94z"/>
	</g>
	<g id="Group_67" transform="translate(213.829 458.221)">
		<path id="Path_126" class="st1" d="M1498.53,44.26c7.22-16.52,3.87-35.76-8.5-48.88c-29.91-32.25-91.49-70.27-138.27-62.24
			c-14.66,2.51-28.38,16.47-33.96,32.35c-2.44,9.93-2.72,20.26-0.83,30.31c1.09,10.39,4.66,20.36,10.4,29.09
			c3.98,5.16,11.07,11.42,11.81,16.36c0.56,4.98-4.66,12.85-7.17,18.86c-3.29,9.92-4.15,20.48-2.51,30.79
			c0.76,10.19,3.7,20.11,8.64,29.06c9.1,13.89,24.54,22.32,41.15,22.46C1424.68,139.36,1477.45,89.38,1498.53,44.26z"/>
		<path id="Path_127" class="st1" d="M1498.07-134.97c-13.79-13-35.32-5.2-48.58,4.3c-13.98,10.03-22.3,20.26-23.35,37.71
			c-0.93,15.67,8.34,27.16,25.35,25.06c14.07-1.75,30.08-13.79,40.23-23.35C1502.14-101.14,1510.43-120.36,1498.07-134.97z"/>
		<path id="Path_128" class="st1" d="M1536.11,172.52c-10.27,15.94-33.02,13.54-48.19,7.52c-15.99-6.38-26.52-14.31-31.74-31.01
			c-4.66-14.96,1.57-28.36,18.59-30.4c14.07-1.69,32.53,6.17,44.67,13.01C1531.93,138.7,1544.58,155.37,1536.11,172.52z"/>
		<path id="Path_129" class="st1" d="M1596.98-62.27c-12.23-20.19-39.52-14.88-54.25-10.36c-17.88,5.5-39.36,16.19-42.96,36.59
			c-7.19,40.59,62.93,31.08,83.25,18.73c7.15-4.01,12.9-10.11,16.48-17.48C1603-43.61,1602.85-46.52,1596.98-62.27z"/>
		<path id="Path_130" class="st1" d="M1615.94,56.39c-6.68-23.25-25.86-26.16-46.09-25.21c-15.83,0.75-38.47,2.73-49.77,15.15
			c-12.66,13.9-6.52,35.52,8.82,44.89c16.81,9.34,36.37,12.46,55.25,8.82C1599.83,97.03,1620.17,83.85,1615.94,56.39z"/>
	</g>
	<g id="Group_68" transform="translate(320.819 453.103)">
		<path id="Path_131" class="st1" d="M2055.59,6.23c14.78-10.34,21.95-28.51,18.23-46.16c-8.72-43.11-41.44-107.65-85.56-125.19
			c-13.79-5.5-32.8-0.75-45.82,9.89c-7.26,7.2-12.9,15.87-16.51,25.44c-4.48,9.43-6.63,19.8-6.27,30.23
			c0.71,6.49,3.5,15.52,1.55,20.13c-2.11,4.54-10.69,8.53-15.97,12.35c-7.98,6.74-14.22,15.3-18.22,24.96
			c-4.66,9.1-7.31,19.09-7.78,29.3c0.54,16.6,9.32,31.84,23.42,40.62C1942.98,48.91,2014.05,33.79,2055.59,6.23z"/>
		<path id="Path_132" class="st1" d="M2148.6-146.95c-5.01-18.29-27.43-22.85-43.7-21.66c-17.16,1.25-29.6,5.64-39.6,20.01
			c-8.95,12.86-7.04,27.52,8.58,34.59c12.91,5.83,32.87,3.9,46.5,1.03C2134.45-115.95,2151.53-128.03,2148.6-146.95z"/>
		<path id="Path_133" class="st1" d="M2020.79,135.29c-17.08,8.25-35.24-5.64-45.04-18.71c-10.31-13.79-15.17-26.04-10.92-43.01
			c3.8-15.2,16.12-23.39,31.69-16.25c12.89,5.9,24.55,22.21,31.33,34.38C2034.86,104.25,2036.96,125.07,2020.79,135.29z"/>
		<path id="Path_134" class="st1" d="M2195.13-33.34c0.09-23.6-25.97-33.31-40.89-37.12c-18.14-4.63-42.03-6.68-55.77,8.84
			c-27.3,30.9,37.5,59.33,61.28,59.38c8.19,0.31,16.28-1.89,23.19-6.32C2190.53-14.28,2191.91-16.83,2195.13-33.34z"/>
		<path id="Path_135" class="st1" d="M2149.45,77.81c6.41-23.34-8.46-35.81-26.21-45.56c-13.9-7.61-34.26-17.71-50.38-13.01
			c-18.05,5.26-24.08,26.94-15.88,42.92c9.48,16.73,24.54,29.6,42.55,36.34C2114.51,104.1,2138.75,103.45,2149.45,77.81z"/>
	</g>
	<g id="Group_69" transform="translate(426.33 490.165)">
		<path id="Path_136" class="st1" d="M2626.23,207.6c4.54-17.47-1.81-35.95-16.12-46.95c-34.62-27.13-101.42-54.93-146.35-39.63
			c-14.08,4.79-25.43,20.73-28.42,37.29c-0.85,10.19,0.5,20.45,3.97,30.08c2.71,10.08,7.8,19.36,14.85,27.06
			c4.75,4.46,12.74,9.53,14.25,14.29c1.34,4.83-2.58,13.43-4.12,19.77c-1.68,10.3-0.88,20.86,2.35,30.79
			c2.37,9.95,6.84,19.27,13.12,27.34c11.18,12.28,27.76,18.17,44.18,15.7C2568.33,313.17,2612.54,255.53,2626.23,207.6z"/>
		<path id="Path_137" class="st1" d="M2597.49,30.69c-15.67-10.65-35.72,0.44-47.28,11.91c-12.23,12.09-18.84,23.52-17.11,40.92
			c1.54,15.59,12.5,25.5,28.98,20.72c13.6-3.94,27.53-18.37,36.02-29.4C2606.85,63.48,2611.99,43.18,2597.49,30.69z"/>
		<path id="Path_138" class="st1" d="M2683.59,328.33c-7.63,17.36-30.47,18.58-46.37,15c-16.78-3.76-28.46-9.94-36.23-25.59
			c-6.98-14.04-2.94-28.26,13.55-32.95c13.63-3.89,33.09,0.95,46.14,5.79C2674.12,295.59,2689.26,310.06,2683.59,328.33z"/>
		<path id="Path_139" class="st1" d="M2706.6,86.88c-15.26-18-41.36-8.46-55.19-1.67c-16.81,8.27-36.31,22.21-36.66,42.92
			c-0.7,41.23,67.05,20.77,85.16,5.37c6.42-5.09,11.14-12.02,13.51-19.86C2715.51,104.36,2714.92,101.51,2706.6,86.88z"/>
		<path id="Path_140" class="st1" d="M2744.09,201.07c-10.27-21.93-29.68-21.74-49.5-17.61c-15.53,3.23-37.56,8.77-46.78,22.82
			c-10.3,15.71-0.83,36.11,15.8,42.93c18.07,6.57,37.88,6.57,55.94,0C2734.6,243.73,2752.6,227.52,2744.09,201.07z"/>
	</g>
	<g id="Group_70" transform="translate(484.401 441.89)">
		<path id="Path_141" class="st1" d="M2932.05-46.63c4.54-17.46-1.81-35.95-16.12-46.94c-34.62-27.13-101.42-54.93-146.35-39.63
			c-14.09,4.79-25.44,20.73-28.42,37.29c-0.85,10.19,0.5,20.45,3.97,30.08c2.71,10.09,7.8,19.38,14.85,27.08
			c4.75,4.46,12.74,9.53,14.25,14.29c1.34,4.83-2.58,13.43-4.12,19.77c-1.68,10.3-0.88,20.86,2.35,30.79
			c2.37,9.95,6.85,19.27,13.12,27.34c11.18,12.28,27.76,18.17,44.18,15.7C2874.13,58.95,2918.34,1.3,2932.05-46.63z"/>
		<path id="Path_142" class="st1" d="M2903.3-223.52c-15.67-10.65-35.72,0.44-47.3,11.91c-12.23,12.11-18.84,23.54-17.11,40.94
			c1.55,15.59,12.53,25.5,28.98,20.72c13.62-3.95,27.57-18.37,36.04-29.4C2912.66-190.74,2917.81-211.04,2903.3-223.52z"/>
		<path id="Path_143" class="st1" d="M2989.4,74.12c-7.63,17.36-30.47,18.58-46.37,15c-16.8-3.76-28.45-9.94-36.24-25.6
			c-6.98-14.02-2.94-28.24,13.55-32.95c13.63-3.87,33.09,0.95,46.14,5.8C2979.93,41.37,2995.07,55.82,2989.4,74.12z"/>
		<path id="Path_144" class="st1" d="M3012.44-167.34c-15.26-18-41.36-8.47-55.21-1.67c-16.8,8.25-36.29,22.21-36.65,42.92
			c-0.7,41.23,67.05,20.77,85.16,5.37c6.42-5.09,11.13-12.02,13.51-19.86C3021.32-149.86,3020.73-152.71,3012.44-167.34z"/>
		<path id="Path_145" class="st1" d="M3049.9-53.16c-10.27-21.93-29.68-21.74-49.5-17.61c-15.52,3.24-37.55,8.77-46.76,22.82
			c-10.31,15.73-0.83,36.11,15.8,42.94c18.07,6.57,37.88,6.57,55.94,0C3040.41-10.47,3058.42-26.71,3049.9-53.16z"/>
	</g>
	<g id="Group_71" transform="translate(622.973 370.741)">
		<path id="Path_146" class="st1" d="M3661.78-421.32c4.54-17.46-1.81-35.94-16.1-46.94c-34.62-27.13-101.42-54.93-146.37-39.63
			c-14.07,4.79-25.42,20.73-28.42,37.29c-0.85,10.19,0.51,20.45,3.97,30.08c2.72,10.09,7.82,19.38,14.87,27.08
			c4.74,4.46,12.73,9.53,14.25,14.29c1.34,4.83-2.59,13.43-4.12,19.77c-1.69,10.3-0.89,20.86,2.35,30.79
			c2.37,9.94,6.85,19.25,13.13,27.31c11.18,12.28,27.76,18.17,44.18,15.7C3603.88-315.74,3648.11-373.39,3661.78-421.32z"/>
		<path id="Path_147" class="st1" d="M3633.06-598.22c-15.67-10.65-35.72,0.44-47.3,11.91c-12.23,12.11-18.84,23.54-17.11,40.94
			c1.54,15.59,12.53,25.5,28.98,20.72c13.62-3.94,27.53-18.37,36.04-29.4C3642.41-565.43,3647.55-585.73,3633.06-598.22z"/>
		<path id="Path_148" class="st1" d="M3719.16-300.57c-7.64,17.36-30.49,18.58-46.41,15c-16.78-3.76-28.45-9.94-36.24-25.59
			c-6.97-14.04-2.93-28.26,13.55-32.96c13.63-3.87,33.1,0.97,46.16,5.8C3709.69-333.33,3724.82-318.85,3719.16-300.57z"/>
		<path id="Path_149" class="st1" d="M3742.2-542.04c-15.26-18-41.36-8.47-55.21-1.67c-16.8,8.27-36.31,22.21-36.66,42.92
			c-0.68,41.23,67.05,20.77,85.16,5.37c6.42-5.09,11.14-12.02,13.51-19.86C3751.08-524.57,3750.48-527.41,3742.2-542.04z"/>
		<path id="Path_150" class="st1" d="M3779.66-427.85c-10.28-21.93-29.68-21.74-49.5-17.61c-15.52,3.24-37.56,8.77-46.78,22.83
			c-10.3,15.71-0.81,36.11,15.82,42.93c18.07,6.57,37.88,6.57,55.94,0C3770.15-385.16,3788.16-401.4,3779.66-427.85z"/>
	</g>
	<g id="Group_72" transform="translate(715.191 344.834)">
		<path id="Path_151" class="st1" d="M4147.46-557.76c4.53-17.46-1.82-35.94-16.12-46.94c-34.62-27.13-101.42-54.93-146.35-39.63
			c-14.09,4.79-25.44,20.73-28.42,37.29c-0.86,10.19,0.49,20.45,3.95,30.08c2.72,10.09,7.82,19.38,14.87,27.08
			c4.75,4.46,12.73,9.53,14.25,14.29c1.34,4.83-2.58,13.43-4.12,19.77c-1.69,10.3-0.89,20.86,2.35,30.79
			c2.37,9.95,6.85,19.27,13.12,27.34c11.18,12.28,27.76,18.17,44.18,15.7C4089.52-452.18,4133.75-509.82,4147.46-557.76z"/>
		<path id="Path_152" class="st1" d="M4118.69-734.65c-15.67-10.65-35.72,0.44-47.3,11.91c-12.23,12.11-18.84,23.54-17.11,40.94
			c1.54,15.59,12.53,25.5,28.98,20.72c13.62-3.95,27.57-18.37,36.04-29.4C4128.06-701.87,4133.2-722.16,4118.69-734.65z"/>
		<path id="Path_153" class="st1" d="M4204.79-437.01c-7.63,17.36-30.47,18.58-46.37,15c-16.8-3.76-28.45-9.94-36.24-25.6
			c-6.98-14.02-2.94-28.24,13.55-32.95c13.63-3.87,33.09,0.95,46.14,5.8C4195.32-469.75,4210.46-455.28,4204.79-437.01z"/>
		<path id="Path_154" class="st1" d="M4227.84-678.47c-15.26-18-41.36-8.47-55.21-1.67c-16.8,8.25-36.29,22.21-36.64,42.92
			c-0.7,41.23,67.05,20.77,85.16,5.37c6.41-5.1,11.13-12.02,13.51-19.86C4236.72-660.99,4236.12-663.84,4227.84-678.47z"/>
		<path id="Path_155" class="st1" d="M4265.29-564.27c-10.27-21.93-29.68-21.74-49.5-17.61c-15.52,3.24-37.56,8.77-46.76,22.82
			c-10.31,15.73-0.83,36.11,15.8,42.94c18.07,6.57,37.88,6.57,55.94,0C4255.81-521.59,4273.82-537.84,4265.29-564.27z"/>
	</g>
	<g id="Group_73" transform="translate(47.658 473.452)">
		<path id="Path_156" class="st1" d="M637.74,96.26c-1.58-17.97-13.74-33.27-30.9-38.85c-41.71-13.98-113.96-17.82-151.18,11.66
			c-11.67,9.23-17.03,28.05-14.31,44.65c2.62,9.88,7.32,19.09,13.79,27.01c5.94,8.59,13.85,15.63,23.07,20.53
			c5.97,2.61,15.18,4.71,18.22,8.7c2.88,4.1,2.05,13.51,2.73,20c1.87,10.26,6.16,19.93,12.53,28.2
			c5.56,8.59,12.89,15.88,21.52,21.38c14.65,7.83,32.23,7.83,46.88,0C618.52,215.14,640.87,146.01,637.74,96.26z"/>
		<path id="Path_157" class="st1" d="M551.45-60.8c-18.33-4.79-33.49,12.35-40.58,27.05c-7.46,15.5-9.86,28.49-2.43,44.3
			c6.68,14.17,20.34,19.85,34.26,9.83c11.5-8.28,19.8-26.54,24.09-39.78C571.25-33.06,569.3-53.89,551.45-60.8z"/>
		<path id="Path_158" class="st1" d="M732.21,190.84c-1.38,18.92-22.5,27.72-38.69,29.69c-17.08,2.07-30.14,0.15-42.72-12
			c-11.28-10.88-12.23-25.64,1.75-35.59c11.54-8.22,31.5-10.18,45.42-9.98C712.33,163.15,731.43,171.72,732.21,190.84z"/>
		<path id="Path_159" class="st1" d="M673.11-44.39c-20.4-11.87-41.81,5.87-52.58,16.92c-13.06,13.4-26.76,33.09-20.16,52.72
			c13.16,39.07,70.12-2.88,82.04-23.46c4.35-6.94,6.47-15.04,6.08-23.22C687.32-30.9,685.82-33.38,673.11-44.39z"/>
		<path id="Path_160" class="st1" d="M746.63,50.66c-17.03-17.21-35.25-10.55-52.55,0c-13.54,8.23-32.45,20.82-36.43,37.15
			c-4.45,18.26,11.28,34.3,29.27,35.17c19.23,0.14,37.89-6.5,52.71-18.74C751.97,94.05,763.48,72.74,746.63,50.66z"/>
	</g>
	<g id="Group_74" transform="translate(547.117 458.447)">
		<path id="Path_161" class="st1" d="M3268.01,17.26c-1.57-17.98-13.74-33.27-30.9-38.85c-41.71-13.98-113.96-17.82-151.2,11.64
			c-11.66,9.23-17.01,28.06-14.29,44.67c2.61,9.88,7.31,19.08,13.79,26.99c5.94,8.6,13.85,15.65,23.07,20.55
			c5.96,2.61,15.18,4.71,18.17,8.7c2.88,4.09,2.07,13.51,2.74,20c1.86,10.27,6.15,19.94,12.53,28.2
			c5.56,8.58,12.89,15.87,21.51,21.38c14.65,7.82,32.24,7.82,46.9,0C3248.78,136.12,3271.15,66.97,3268.01,17.26z"/>
		<path id="Path_162" class="st1" d="M3181.71-139.82c-18.35-4.78-33.49,12.36-40.58,27.06c-7.46,15.5-9.86,28.49-2.43,44.3
			c6.67,14.17,20.33,19.85,34.24,9.83c11.52-8.28,19.8-26.54,24.11-39.78C3201.51-112.07,3199.56-132.9,3181.71-139.82z"/>
		<path id="Path_163" class="st1" d="M3362.48,111.83c-1.38,18.91-22.5,27.72-38.71,29.68c-17.07,2.08-30.13,0.16-42.7-11.99
			c-11.28-10.88-12.23-25.65,1.74-35.59c11.55-8.22,31.5-10.18,45.43-9.98C3342.59,84.14,3361.7,92.71,3362.48,111.83z"/>
		<path id="Path_164" class="st1" d="M3303.37-123.4c-20.4-11.87-41.83,5.87-52.58,16.92c-13.07,13.4-26.78,33.09-20.18,52.72
			c13.16,39.07,70.13-2.88,82.09-23.46c4.35-6.94,6.47-15.04,6.08-23.22C3317.59-109.92,3316.07-112.39,3303.37-123.4z"/>
		<path id="Path_165" class="st1" d="M3376.88-28.34c-17.01-17.21-35.24-10.55-52.54,0c-13.54,8.23-32.47,20.82-36.43,37.15
			c-4.45,18.26,11.28,34.31,29.27,35.17c19.22,0.15,37.88-6.49,52.7-18.73C3382.23,15.04,3393.75-6.27,3376.88-28.34z"/>
	</g>
	<g id="Group_75" transform="translate(842.427 338.233)">
		<path id="Path_166" class="st1" d="M4823.17-615.83c-1.57-17.98-13.73-33.28-30.9-38.85c-41.71-13.98-113.96-17.84-151.2,11.64
			c-11.66,9.23-17.01,28.05-14.29,44.65c2.61,9.89,7.31,19.1,13.79,27.01c5.94,8.59,13.85,15.64,23.07,20.53
			c5.96,2.63,15.18,4.72,18.22,8.7c2.86,4.1,2.05,13.53,2.73,20c1.86,10.28,6.16,19.97,12.53,28.24
			c5.56,8.58,12.89,15.86,21.5,21.37c14.65,7.83,32.25,7.83,46.9,0C4803.95-496.95,4826.31-566.09,4823.17-615.83z"/>
		<path id="Path_167" class="st1" d="M4736.88-772.89c-18.35-4.79-33.49,12.35-40.58,27.05c-7.46,15.5-9.86,28.49-2.42,44.3
			c6.68,14.17,20.33,19.85,34.24,9.83c11.52-8.28,19.81-26.54,24.11-39.78C4756.68-745.15,4754.73-765.99,4736.88-772.89z"/>
		<path id="Path_168" class="st1" d="M4917.65-521.24c-1.38,18.91-22.5,27.7-38.71,29.68c-17.07,2.07-30.13,0.15-42.7-12
			c-11.28-10.88-12.23-25.64,1.74-35.59c11.55-8.22,31.51-10.18,45.43-9.98C4897.76-548.94,4916.86-540.36,4917.65-521.24z"/>
		<path id="Path_169" class="st1" d="M4858.53-756.49c-20.4-11.87-41.83,5.87-52.58,16.92c-13.06,13.4-26.76,33.07-20.16,52.7
			c13.16,39.08,70.12-2.88,82.04-23.45c4.35-6.94,6.47-15.05,6.08-23.24C4872.75-742.99,4871.25-745.48,4858.53-756.49z"/>
		<path id="Path_170" class="st1" d="M4932.06-661.43c-17.03-17.21-35.25-10.55-52.55,0c-13.54,8.25-32.47,20.82-36.43,37.15
			c-4.45,18.26,11.28,34.31,29.27,35.18c19.23,0.13,37.89-6.5,52.72-18.74C4937.4-618.03,4948.92-639.35,4932.06-661.43z"/>
	</g>
	<g id="Group_76" transform="translate(559.589 369.861)">
		<path id="Path_171" class="st1" d="M3321.52-462.62c-7.81-16.27-24.58-26.29-42.61-25.47c-43.96,1.62-112.94,23.46-137.4,64.15
			c-7.66,12.76-6.05,32.25,2.35,46.83c5.92,8.33,13.57,15.29,22.42,20.4c8.58,5.96,18.46,9.77,28.82,11.12
			c6.52,0.34,15.88-0.95,20.11,1.72c4.13,2.82,6.69,11.91,9.61,17.76c5.36,8.96,12.79,16.51,21.67,22
			c8.22,6.07,17.65,10.31,27.65,12.43c16.46,2.16,32.91-4.03,43.86-16.51C3345.41-344.6,3342-417.17,3321.52-462.62z"/>
		<path id="Path_172" class="st1" d="M3185.45-579.22c-18.86,1.97-26.99,23.35-28.45,39.62c-1.52,17.14,0.8,30.13,13.35,42.33
			c11.24,10.9,26.01,11.4,35.51-2.88c7.86-11.79,9.19-31.8,8.55-45.74C3213.74-560.22,3204.59-579.04,3185.45-579.22z"/>
		<path id="Path_173" class="st1" d="M3443.27-407.39c5.37,18.17-11.28,33.84-25.77,41.41c-15.26,7.96-28.15,10.77-44.2,3.82
			c-14.41-6.21-20.48-19.68-10.9-33.91c7.9-11.76,25.89-20.63,38.99-25.35C3414.91-426.3,3435.81-425,3443.27-407.39z"/>
		<path id="Path_174" class="st1" d="M3305.09-606.73c-23.28-3.9-37.08,20.22-43.24,34.33c-7.52,17.14-13.4,40.4-0.32,56.44
			c26.07,31.96,64.63-27.4,68.53-50.86c1.62-8.03,0.75-16.37-2.51-23.89C3323.16-599.11,3320.85-600.89,3305.09-606.73z"/>
		<path id="Path_175" class="st1" d="M3407.37-543.66c-21.98-10.12-36.7,2.51-49.17,18.49c-9.77,12.47-23.05,30.92-21.02,47.62
			c2.27,18.65,22.68,28.12,39.78,22.6c18.04-6.64,33.17-19.42,42.74-36.1C3427.67-504.93,3430.94-528.94,3407.37-543.66z"/>
	</g>
	<g id="Group_77" transform="translate(866.671 262.143)">
		<path id="Path_176" class="st1" d="M4938.7-1029.89c-7.81-16.27-24.58-26.3-42.61-25.47c-43.96,1.61-112.92,23.46-137.38,64.15
			c-7.68,12.76-6.06,32.25,2.34,46.83c5.93,8.33,13.58,15.29,22.42,20.42c8.59,5.95,18.47,9.75,28.82,11.1
			c6.5,0.34,15.87-0.95,20.1,1.74c4.15,2.82,6.69,11.91,9.61,17.75c5.36,8.96,12.8,16.51,21.68,22
			c8.22,6.08,17.65,10.31,27.65,12.43c16.46,2.16,32.91-4.04,43.86-16.51C4962.58-911.89,4959.16-984.44,4938.7-1029.89z"/>
		<path id="Path_177" class="st1" d="M4802.61-1146.49c-18.85,1.97-26.99,23.35-28.44,39.62c-1.54,17.14,0.78,30.13,13.33,42.33
			c11.24,10.9,26.01,11.4,35.51-2.88c7.86-11.79,9.19-31.8,8.55-45.74C4830.91-1127.49,4821.75-1146.31,4802.61-1146.49z"/>
		<path id="Path_178" class="st1" d="M5060.43-974.65c5.37,18.17-11.28,33.84-25.77,41.41c-15.25,7.96-28.15,10.77-44.2,3.83
			c-14.37-6.23-20.46-19.69-10.9-33.93c7.91-11.76,25.89-20.63,38.99-25.35C5032.06-993.56,5052.97-992.27,5060.43-974.65z"/>
		<path id="Path_179" class="st1" d="M4922.25-1174c-23.27-3.9-37.08,20.23-43.24,34.33c-7.52,17.16-13.42,40.4-0.31,56.44
			c26.07,31.96,64.61-27.4,68.53-50.84c1.62-8.03,0.75-16.37-2.51-23.89C4940.31-1166.37,4938.02-1168.19,4922.25-1174z"/>
		<path id="Path_180" class="st1" d="M5024.54-1110.92c-21.99-10.1-36.7,2.51-49.19,18.49c-9.77,12.47-23.04,30.92-21,47.62
			c2.26,18.65,22.66,28.12,39.78,22.6c18.04-6.64,33.17-19.42,42.74-36.1C5044.83-1072.2,5048.11-1096.22,5024.54-1110.92z"/>
	</g>
	<g id="Group_78" transform="translate(666.06 309.609)">
		<path id="Path_181" class="st1" d="M3877.33-737.75c7.92-16.21,5.37-35.59-6.47-49.2c-28.54-33.46-88.5-73.98-135.59-67.9
			c-14.74,1.92-29.04,15.28-35.25,30.91c-2.85,9.82-3.56,20.13-2.08,30.25c0.66,10.42,3.81,20.54,9.18,29.5
			c3.76,5.31,10.6,11.87,11.13,16.84c0.36,5.01-5.19,12.64-7.95,18.55c-3.7,9.77-5.01,20.28-3.8,30.65
			c0.34,10.22,2.87,20.24,7.42,29.39c8.53,14.26,23.61,23.31,40.2,24.14C3799.63-645.77,3854.41-693.5,3877.33-737.75z"/>
		<path id="Path_182" class="st1" d="M3884.28-916.83c-13.27-13.55-35.09-6.65-48.72,2.29c-14.41,9.44-23.13,19.33-24.9,36.71
			c-1.6,15.59,7.19,27.47,24.29,26.07c14.11-1.16,30.62-12.53,41.15-21.68C3886.95-882.84,3896.01-901.72,3884.28-916.83z"/>
		<path id="Path_183" class="st1" d="M3909.6-608.03c-10.93,15.5-33.57,12.17-48.46,5.5c-15.71-7.01-25.9-15.4-30.43-32.28
			c-4.05-15.13,2.73-28.27,19.83-29.6c14.13-1.1,32.24,7.52,44.08,14.84C3906.81-642,3918.77-624.81,3909.6-608.03z"/>
		<path id="Path_184" class="st1" d="M3980.09-840.1c-11.37-20.68-38.85-16.51-53.76-12.59c-18.11,4.75-39.99,14.55-44.45,34.78
			c-8.85,40.26,61.6,33.66,82.42,22.15c7.3-3.71,13.29-9.56,17.18-16.77C3985.33-821.22,3985.31-824.12,3980.09-840.1z"/>
		<path id="Path_185" class="st1" d="M3994.14-720.76c-5.71-23.51-24.78-27.2-45.01-27.08c-15.86,0.09-38.56,1.13-50.38,13.07
			c-13.21,13.36-7.98,35.24,6.98,45.22c16.41,10.02,35.82,13.95,54.83,11.1C3976.38-680.81,3997.23-693.15,3994.14-720.76z"/>
	</g>
	<g id="Group_79" transform="translate(781.903 313.913)">
		<path id="Path_186" class="st1" d="M4501.36-723.89c3.33-17.74-4.27-35.75-19.3-45.74c-36.4-24.68-104.95-47.84-148.72-29.5
			c-13.72,5.75-23.94,22.42-25.8,39.15c-0.15,10.22,1.9,20.36,6.02,29.72c3.4,9.88,9.11,18.79,16.67,26
			c5.05,4.13,13.36,8.64,15.2,13.28c1.67,4.72-1.66,13.57-2.74,20c-0.99,10.4,0.54,20.88,4.46,30.57
			c3.03,9.76,8.13,18.76,14.96,26.37c12,11.49,28.94,16.22,45.16,12.62C4450.83-614.59,4491.01-675.14,4501.36-723.89z"/>
		<path id="Path_187" class="st1" d="M4460.56-898.4c-16.37-9.56-35.59,2.88-46.37,15.13c-11.37,12.92-17.18,24.78-14.26,42.03
			c2.61,15.44,14.24,24.58,30.34,18.68c13.3-4.87,26.21-20.22,33.93-31.81C4472.15-866.34,4475.85-886.94,4460.56-898.4z"/>
		<path id="Path_188" class="st1" d="M4566.88-607.37c-6.42,17.84-29.13,20.63-45.27,18.17c-16.99-2.59-29.06-7.96-37.91-23.05
			c-7.91-13.51-4.86-27.97,11.28-33.79c13.35-4.81,33.09-1.33,46.45,2.61C4555.19-639.39,4571.28-626,4566.88-607.37z"/>
		<path id="Path_189" class="st1" d="M4573.31-849.84c-16.47-16.92-41.86-5.64-55.19,2.11c-16.19,9.4-34.7,24.65-33.62,45.34
			c2.14,41.16,68.3,16.1,85.33-0.49c6.07-5.51,10.3-12.75,12.12-20.73C4583.33-833.01,4582.56-835.82,4573.31-849.84z"/>
		<path id="Path_190" class="st1" d="M4618.51-738.48c-11.76-21.15-31.11-19.64-50.61-14.17c-15.26,4.3-36.87,11.32-45.12,25.98
			c-9.2,16.39,1.66,36.08,18.71,41.74c18.48,5.32,38.24,3.96,55.81-3.85C4611.94-695.25,4628.81-712.7,4618.51-738.48z"/>
	</g>
	<g id="Group_80" transform="translate(930.18 282.326)">
		<path id="Path_191" class="st1" d="M5282.41-890.55c3.22-17.75-4.49-35.71-19.58-45.61c-36.55-24.48-105.23-47.23-148.9-28.61
			c-13.68,5.83-23.81,22.56-25.56,39.3c-0.08,10.22,2.03,20.35,6.18,29.69c3.46,9.85,9.24,18.73,16.84,25.89
			c5.06,4.1,13.4,8.55,15.28,13.2c1.7,4.72-1.57,13.59-2.63,20.01c-0.92,10.41,0.68,20.88,4.64,30.55
			c3.1,9.74,8.25,18.7,15.11,26.28c12.07,11.4,29.04,16.04,45.24,12.35C5232.54-780.94,5272.34-841.74,5282.41-890.55z"/>
		<path id="Path_192" class="st1" d="M5240.57-1064.82c-16.44-9.46-35.57,3.13-46.28,15.41c-11.28,12.98-17.03,24.88-14.01,42.1
			c2.68,15.43,14.37,24.49,30.45,18.5c13.27-4.94,26.09-20.37,33.73-32.01C5252.34-1032.82,5255.96-1053.45,5240.57-1064.82z"/>
		<path id="Path_193" class="st1" d="M5348.63-774.43c-6.32,17.88-29.01,20.81-45.16,18.43c-17.01-2.51-29.1-7.78-38.04-22.82
			c-7.99-13.48-5.01-27.95,11.07-33.84c13.3-4.9,33.07-1.52,46.46,2.34C5336.74-806.37,5352.91-793.08,5348.63-774.43z"/>
		<path id="Path_194" class="st1" d="M5353.59-1016.92c-16.56-16.82-41.89-5.35-55.14,2.44c-16.15,9.49-34.55,24.86-33.35,45.54
			c2.38,41.15,68.41,15.7,85.33-1.01c6.03-5.55,10.21-12.81,11.99-20.81C5363.75-1000.16,5362.95-1002.95,5353.59-1016.92z"/>
		<path id="Path_195" class="st1" d="M5399.47-905.86c-11.91-21.08-31.23-19.47-50.68-13.87c-15.25,4.39-36.81,11.54-44.95,26.24
			c-9.09,16.45,1.88,36.08,18.97,41.65c18.51,5.19,38.25,3.71,55.77-4.19C5393.18-862.6,5409.92-880.12,5399.47-905.86z"/>
	</g>
	<g id="Group_81" transform="translate(1028.342 252.041)">
		<path id="Path_196" class="st1" d="M5799.36-1050.05c3.21-17.75-4.49-35.71-19.57-45.61c-36.55-24.48-105.23-47.21-148.9-28.61
			c-13.69,5.83-23.81,22.56-25.56,39.31c-0.09,10.22,2.02,20.34,6.18,29.68c3.47,9.85,9.24,18.74,16.84,25.9
			c5.07,4.09,13.4,8.55,15.28,13.2c1.69,4.71-1.57,13.57-2.64,20.01c-0.91,10.4,0.69,20.88,4.66,30.54
			c3.1,9.74,8.25,18.7,15.11,26.28c12.07,11.4,29.04,16.04,45.24,12.35C5749.49-940.44,5789.29-1001.24,5799.36-1050.05z"/>
		<path id="Path_197" class="st1" d="M5757.52-1224.3c-16.45-9.46-35.57,3.09-46.28,15.41c-11.28,12.98-17.03,24.86-14.02,42.08
			c2.7,15.44,14.41,24.5,30.46,18.52c13.27-4.96,26.09-20.38,33.73-32.03C5769.29-1192.32,5772.91-1212.93,5757.52-1224.3z"/>
		<path id="Path_198" class="st1" d="M5865.57-933.91c-6.32,17.87-29.01,20.79-45.16,18.43c-17.01-2.51-29.1-7.8-38.04-22.83
			c-7.99-13.47-5.01-27.95,11.07-33.84c13.3-4.89,33.07-1.52,46.46,2.34C5853.68-965.87,5869.86-952.57,5865.57-933.91z"/>
		<path id="Path_199" class="st1" d="M5870.53-1176.43c-16.56-16.81-41.89-5.35-55.14,2.46c-16.15,9.49-34.55,24.85-33.35,45.52
			c2.38,41.16,68.41,15.7,85.33-1.01c6.02-5.55,10.2-12.8,11.99-20.79C5880.69-1159.66,5879.89-1162.46,5870.53-1176.43z"/>
		<path id="Path_200" class="st1" d="M5916.4-1065.37c-11.91-21.08-31.21-19.47-50.66-13.87c-15.25,4.39-36.81,11.55-44.95,26.25
			c-9.09,16.44,1.88,36.07,18.97,41.63c18.5,5.2,38.25,3.72,55.77-4.18C5910.13-1022.09,5926.87-1039.62,5916.4-1065.37z"/>
	</g>
	<g id="Group_82" transform="translate(1076.628 180.83)">
		<path id="Path_201" class="st1" d="M6053.65-1425.05c3.22-17.75-4.48-35.71-19.57-45.61c-36.55-24.48-105.23-47.23-148.9-28.61
			c-13.68,5.82-23.81,22.56-25.56,39.3c-0.09,10.23,2.02,20.35,6.19,29.69c3.46,9.85,9.24,18.73,16.84,25.89
			c5.07,4.1,13.4,8.55,15.28,13.2c1.69,4.71-1.57,13.59-2.63,20.01c-0.92,10.4,0.67,20.88,4.64,30.54
			c3.09,9.75,8.24,18.73,15.11,26.32c12.07,11.4,29.04,16.04,45.24,12.35C6003.78-1315.46,6043.58-1376.24,6053.65-1425.05z"/>
		<path id="Path_202" class="st1" d="M6011.8-1599.32c-16.44-9.46-35.57,3.13-46.28,15.41c-11.28,12.98-17.03,24.88-14.02,42.1
			c2.7,15.43,14.41,24.49,30.46,18.5c13.27-4.94,26.09-20.37,33.73-32.01C6023.57-1567.32,6027.2-1587.95,6011.8-1599.32z"/>
		<path id="Path_203" class="st1" d="M6119.85-1308.93c-6.32,17.88-29.01,20.81-45.16,18.43c-17.01-2.51-29.1-7.8-38.04-22.83
			c-7.99-13.47-5.01-27.94,11.07-33.84c13.3-4.89,33.07-1.51,46.46,2.35C6107.97-1340.88,6124.13-1327.58,6119.85-1308.93z"/>
		<path id="Path_204" class="st1" d="M6124.82-1551.43c-16.56-16.83-41.89-5.35-55.14,2.44c-16.15,9.49-34.55,24.85-33.36,45.54
			c2.38,41.15,68.41,15.7,85.33-1.01c6.03-5.55,10.21-12.81,11.99-20.81C6134.97-1534.64,6134.18-1537.46,6124.82-1551.43z"/>
		<path id="Path_205" class="st1" d="M6170.69-1440.36c-11.91-21.08-31.21-19.47-50.66-13.87c-15.25,4.39-36.81,11.54-44.95,26.24
			c-9.09,16.45,1.88,36.08,18.97,41.65c18.51,5.19,38.25,3.71,55.77-4.19C6164.41-1397.1,6181.15-1414.62,6170.69-1440.36z"/>
	</g>
	<g id="Group_83" transform="translate(1194.659 156.513)">
		<path id="Path_206" class="st1" d="M6675.23-1553.11c3.21-17.75-4.49-35.71-19.58-45.61c-36.55-24.48-105.23-47.23-148.92-28.61
			c-13.67,5.82-23.81,22.56-25.56,39.3c-0.08,10.23,2.04,20.35,6.2,29.69c3.46,9.86,9.23,18.74,16.84,25.89
			c5.07,4.1,13.4,8.55,15.28,13.2c1.69,4.71-1.58,13.59-2.64,20.01c-0.92,10.4,0.68,20.87,4.64,30.54
			c3.1,9.76,8.26,18.73,15.13,26.32c12.07,11.41,29.04,16.04,45.24,12.35C6625.35-1443.52,6665.16-1504.3,6675.23-1553.11z"/>
		<path id="Path_207" class="st1" d="M6633.36-1727.37c-16.44-9.46-35.55,3.13-46.28,15.41c-11.28,12.98-17.03,24.88-14.01,42.1
			c2.7,15.43,14.41,24.49,30.45,18.5c13.28-4.94,26.1-20.37,33.74-32.01C6645.15-1695.38,6648.77-1716.01,6633.36-1727.37z"/>
		<path id="Path_208" class="st1" d="M6741.44-1436.99c-6.32,17.88-29.01,20.81-45.16,18.43c-17.02-2.51-29.12-7.78-38.04-22.83
			c-7.99-13.47-5.01-27.94,11.07-33.84c13.3-4.89,33.07-1.51,46.44,2.35C6729.54-1468.94,6745.72-1455.64,6741.44-1436.99z"/>
		<path id="Path_209" class="st1" d="M6746.41-1679.49c-16.56-16.83-41.89-5.35-55.14,2.44c-16.14,9.49-34.55,24.85-33.34,45.54
			c2.38,41.15,68.4,15.7,85.33-1.01c6.03-5.55,10.21-12.81,11.99-20.81C6756.57-1662.72,6755.76-1665.52,6746.41-1679.49z"/>
		<path id="Path_210" class="st1" d="M6792.28-1568.44c-11.91-21.08-31.21-19.47-50.68-13.87c-15.23,4.39-36.79,11.54-44.94,26.24
			c-9.1,16.45,1.88,36.08,18.97,41.65c18.51,5.19,38.25,3.71,55.77-4.19C6786-1525.16,6802.74-1542.68,6792.28-1568.44z"/>
	</g>
	<g id="Group_84" transform="translate(1310.993 195.256)">
		<path id="Path_211" class="st1" d="M7287.87-1349.08c3.21-17.75-4.49-35.71-19.58-45.61c-36.55-24.48-105.23-47.23-148.92-28.61
			c-13.68,5.82-23.81,22.56-25.56,39.3c-0.08,10.23,2.03,20.35,6.2,29.69c3.46,9.86,9.24,18.74,16.84,25.89
			c5.06,4.1,13.4,8.55,15.28,13.2c1.69,4.72-1.58,13.59-2.64,20.01c-0.92,10.4,0.68,20.87,4.64,30.54
			c3.1,9.76,8.26,18.73,15.13,26.32c12.07,11.41,29.04,16.04,45.24,12.35C7237.99-1239.47,7277.78-1300.27,7287.87-1349.08z"/>
		<path id="Path_212" class="st1" d="M7246.02-1523.35c-16.44-9.46-35.55,3.13-46.28,15.41c-11.28,12.98-17.03,24.88-14,42.1
			c2.7,15.43,14.41,24.49,30.45,18.5c13.28-4.94,26.1-20.37,33.74-32.01C7257.79-1491.35,7261.4-1511.98,7246.02-1523.35z"/>
		<path id="Path_213" class="st1" d="M7354.08-1232.96c-6.32,17.88-29.01,20.81-45.16,18.43c-17.03-2.51-29.12-7.78-38.04-22.83
			c-8-13.47-5.01-27.94,11.07-33.84c13.3-4.9,33.07-1.52,46.44,2.34C7342.19-1264.91,7358.36-1251.61,7354.08-1232.96z"/>
		<path id="Path_214" class="st1" d="M7359.05-1475.46c-16.56-16.83-41.89-5.35-55.14,2.44c-16.14,9.49-34.55,24.85-33.34,45.54
			c2.38,41.15,68.4,15.7,85.31-1.01c6.03-5.55,10.22-12.81,12-20.81C7369.21-1458.69,7368.41-1461.48,7359.05-1475.46z"/>
		<path id="Path_215" class="st1" d="M7404.92-1364.42c-11.91-21.08-31.21-19.47-50.68-13.87c-15.23,4.39-36.79,11.54-44.94,26.24
			c-9.1,16.45,1.88,36.08,18.97,41.65c18.51,5.2,38.25,3.71,55.77-4.19C7398.64-1321.13,7415.38-1338.65,7404.92-1364.42z"/>
	</g>
	<g id="Group_85" transform="translate(1136.572 209.001)">
		<path id="Path_216" class="st1" d="M6357.9-1268.21c7.22-16.52,3.87-35.76-8.5-48.88c-29.9-32.25-91.49-70.25-138.28-62.23
			c-14.66,2.51-28.38,16.45-33.96,32.33c-2.44,9.93-2.72,20.26-0.83,30.31c1.09,10.39,4.66,20.36,10.4,29.09
			c3.98,5.16,11.07,11.42,11.81,16.37c0.57,4.96-4.66,12.85-7.18,18.85c-3.29,9.92-4.15,20.48-2.51,30.79
			c0.77,10.2,3.72,20.11,8.64,29.07c9.11,13.88,24.55,22.31,41.15,22.46C6284.04-1173.09,6336.82-1223.05,6357.9-1268.21z"/>
		<path id="Path_217" class="st1" d="M6357.45-1447.42c-13.79-13-35.33-5.2-48.58,4.31c-13.99,10.03-22.31,20.25-23.37,37.71
			c-0.93,15.67,8.34,27.16,25.35,25.03c14.07-1.75,30.08-13.79,40.23-23.35C6361.51-1413.56,6369.8-1432.81,6357.45-1447.42z"/>
		<path id="Path_218" class="st1" d="M6395.49-1139.92c-10.28,15.94-33.04,13.53-48.19,7.52c-15.98-6.36-26.54-14.31-31.74-31.01
			c-4.67-14.94,1.55-28.36,18.58-30.4c14.09-1.67,32.53,6.17,44.67,13.01C6391.28-1173.76,6403.97-1157.08,6395.49-1139.92z"/>
		<path id="Path_219" class="st1" d="M6456.35-1374.71c-12.23-20.19-39.52-14.89-54.24-10.38c-17.9,5.5-39.36,16.21-42.97,36.59
			c-7.17,40.59,62.94,31.08,83.25,18.74c7.14-4.01,12.89-10.11,16.48-17.48C6462.37-1356.06,6462.22-1358.95,6456.35-1374.71z"/>
		<path id="Path_220" class="st1" d="M6475.32-1256.06c-6.69-23.25-25.87-26.15-46.11-25.2c-15.83,0.74-38.47,2.71-49.77,15.14
			c-12.66,13.9-6.52,35.54,8.82,44.9c16.81,9.33,36.37,12.46,55.25,8.82C6459.21-1215.4,6479.54-1228.6,6475.32-1256.06z"/>
	</g>
	<g id="Group_86" transform="translate(1243.564 203.884)">
		<path id="Path_221" class="st1" d="M6914.95-1306.21c14.79-10.34,21.96-28.51,18.23-46.16c-8.7-43.12-41.44-107.65-85.56-125.2
			c-13.79-5.49-32.8-0.74-45.82,9.89c-7.26,7.2-12.89,15.88-16.51,25.44c-4.48,9.44-6.63,19.81-6.27,30.25
			c0.71,6.47,3.5,15.52,1.55,20.11c-2.11,4.54-10.69,8.53-15.97,12.35c-7.96,6.75-14.19,15.31-18.17,24.96
			c-4.67,9.1-7.32,19.1-7.78,29.31c0.53,16.6,9.31,31.84,23.4,40.62C6802.33-1263.55,6873.41-1278.67,6914.95-1306.21z"/>
		<path id="Path_222" class="st1" d="M7007.99-1459.39c-5.01-18.29-27.43-22.86-43.71-21.66c-17.16,1.25-29.6,5.64-39.6,20.01
			c-8.94,12.85-7.04,27.52,8.58,34.58c12.92,5.83,32.87,3.92,46.5,1.04C6993.82-1428.39,7010.9-1440.47,7007.99-1459.39z"/>
		<path id="Path_223" class="st1" d="M6880.15-1177.14c-17.07,8.23-35.24-5.64-45.02-18.73c-10.33-13.79-15.18-26.04-10.93-43.01
			c3.82-15.18,16.12-23.39,31.71-16.24c12.88,5.9,24.54,22.21,31.33,34.38C6894.22-1208.2,6896.33-1187.36,6880.15-1177.14z"/>
		<path id="Path_224" class="st1" d="M7054.48-1345.79c0.09-23.6-25.97-33.31-40.89-37.12c-18.14-4.63-42.03-6.69-55.73,8.82
			c-27.31,30.9,37.5,59.33,61.26,59.4c8.19,0.3,16.28-1.9,23.19-6.32C7049.9-1326.7,7051.28-1329.29,7054.48-1345.79z"/>
		<path id="Path_225" class="st1" d="M7008.82-1234.64c6.41-23.33-8.45-35.81-26.21-45.54c-13.9-7.61-34.25-17.73-50.38-13.03
			c-18.05,5.26-24.08,26.94-15.86,42.92c9.47,16.74,24.53,29.61,42.54,36.34C6973.89-1208.34,6998.13-1209.01,7008.82-1234.64z"/>
	</g>
	<g id="Group_87" transform="translate(1349.074 240.945)">
		<path id="Path_226" class="st1" d="M7485.59-1104.83c4.53-17.46-1.81-35.95-16.12-46.94c-34.62-27.13-101.41-54.95-146.35-39.64
			c-14.08,4.79-25.42,20.73-28.42,37.29c-0.84,10.19,0.51,20.45,3.97,30.08c2.72,10.08,7.81,19.37,14.85,27.08
			c4.75,4.46,12.74,9.53,14.25,14.29c1.34,4.83-2.58,13.42-4.12,19.75c-1.68,10.31-0.87,20.87,2.37,30.8
			c2.36,9.95,6.83,19.28,13.12,27.34c11.19,12.27,27.76,18.15,44.18,15.67C7427.69-999.27,7471.9-1056.93,7485.59-1104.83z"/>
		<path id="Path_227" class="st1" d="M7456.85-1281.74c-15.67-10.65-35.72,0.44-47.29,11.91c-12.23,12.11-18.83,23.54-17.11,40.94
			c1.54,15.58,12.53,25.5,28.98,20.72c13.62-3.95,27.53-18.38,36.02-29.42C7466.22-1248.96,7471.34-1269.26,7456.85-1281.74z"/>
		<path id="Path_228" class="st1" d="M7542.97-984.1c-7.64,17.36-30.49,18.58-46.41,15c-16.78-3.76-28.45-9.94-36.24-25.6
			c-6.97-14.02-2.94-28.24,13.55-32.95c13.63-3.87,33.1,0.95,46.16,5.8C7533.48-1016.85,7548.62-1002.37,7542.97-984.1z"/>
		<path id="Path_229" class="st1" d="M7565.99-1225.56c-15.25-18.02-41.36-8.47-55.19-1.67c-16.81,8.25-36.31,22.19-36.66,42.92
			c-0.7,41.21,67.05,20.75,85.16,5.35c6.42-5.08,11.13-12.01,13.51-19.85C7574.89-1208.08,7574.28-1210.93,7565.99-1225.56z"/>
		<path id="Path_230" class="st1" d="M7603.47-1111.38c-10.28-21.93-29.69-21.74-49.5-17.61c-15.52,3.23-37.56,8.77-46.78,22.82
			c-10.3,15.73-0.81,36.11,15.8,42.94c18.07,6.57,37.87,6.57,55.94,0C7593.97-1068.71,7611.97-1084.93,7603.47-1111.38z"/>
	</g>
	<g id="Group_88" transform="translate(1407.145 192.67)">
		<path id="Path_231" class="st1" d="M7791.41-1359.08c4.54-17.46-1.81-35.95-16.12-46.94c-34.62-27.14-101.42-54.95-146.35-39.64
			c-14.08,4.79-25.42,20.73-28.42,37.29c-0.84,10.19,0.51,20.45,3.97,30.08c2.72,10.08,7.81,19.37,14.85,27.08
			c4.75,4.46,12.74,9.51,14.25,14.29c1.34,4.82-2.58,13.42-4.12,19.75c-1.68,10.31-0.87,20.87,2.37,30.8
			c2.36,9.95,6.83,19.27,13.1,27.34c11.19,12.27,27.77,18.15,44.2,15.67C7733.48-1253.49,7777.72-1311.15,7791.41-1359.08z"/>
		<path id="Path_232" class="st1" d="M7762.67-1535.98c-15.67-10.65-35.72,0.45-47.28,11.91c-12.23,12.09-18.83,23.52-17.11,40.92
			c1.54,15.59,12.53,25.5,28.98,20.73c13.62-3.95,27.53-18.38,36.02-29.42C7772.03-1503.2,7777.18-1523.5,7762.67-1535.98z"/>
		<path id="Path_233" class="st1" d="M7848.77-1238.34c-7.63,17.36-30.47,18.58-46.37,15.04c-16.78-3.76-28.46-9.95-36.23-25.6
			c-6.97-14.02-2.94-28.26,13.55-32.95c13.63-3.89,33.1,0.95,46.14,5.79C7839.31-1271.08,7854.44-1256.61,7848.77-1238.34z"/>
		<path id="Path_234" class="st1" d="M7871.81-1479.8c-15.25-18-41.36-8.46-55.19-1.67c-16.81,8.27-36.31,22.21-36.66,42.92
			c-0.7,41.23,67.05,20.77,85.16,5.37c6.42-5.09,11.14-12.02,13.51-19.86C7880.7-1462.33,7880.1-1465.16,7871.81-1479.8z"/>
		<path id="Path_235" class="st1" d="M7909.28-1365.61c-10.28-21.93-29.69-21.74-49.5-17.61c-15.52,3.23-37.56,8.77-46.78,22.82
			c-10.3,15.71-0.83,36.11,15.8,42.93c18.07,6.57,37.87,6.57,55.94,0C7899.78-1322.94,7917.78-1339.16,7909.28-1365.61z"/>
	</g>
	<g id="Group_89" transform="translate(1545.717 121.522)">
		<path id="Path_236" class="st1" d="M8521.17-1733.76c4.54-17.46-1.81-35.95-16.12-46.94c-34.62-27.14-101.42-54.95-146.35-39.64
			c-14.09,4.79-25.44,20.73-28.42,37.29c-0.86,10.19,0.49,20.45,3.95,30.08c2.72,10.08,7.82,19.37,14.87,27.08
			c4.75,4.46,12.73,9.51,14.25,14.29c1.34,4.82-2.58,13.42-4.12,19.75c-1.69,10.31-0.89,20.87,2.35,30.8
			c2.37,9.95,6.84,19.27,13.12,27.34c11.19,12.27,27.76,18.15,44.18,15.67C8463.25-1628.17,8507.48-1685.84,8521.17-1733.76z"/>
		<path id="Path_237" class="st1" d="M8492.43-1910.65c-15.67-10.65-35.72,0.44-47.3,11.91c-12.23,12.11-18.84,23.54-17.11,40.94
			c1.54,15.58,12.53,25.5,28.98,20.72c13.62-3.95,27.57-18.38,36.04-29.42C8501.78-1877.88,8506.93-1898.18,8492.43-1910.65z"/>
		<path id="Path_238" class="st1" d="M8578.54-1613.02c-7.63,17.36-30.47,18.59-46.37,15.04c-16.79-3.76-28.46-9.94-36.23-25.6
			c-6.98-14.02-2.94-28.26,13.55-32.95c13.63-3.87,33.08,0.95,46.14,5.79C8569.06-1645.76,8584.18-1631.3,8578.54-1613.02z"/>
		<path id="Path_239" class="st1" d="M8601.57-1854.48c-15.26-18-41.36-8.46-55.21-1.67c-16.8,8.27-36.29,22.21-36.64,42.92
			c-0.7,41.23,67.05,20.77,85.16,5.37c6.42-5.09,11.13-12.02,13.51-19.86C8610.47-1837,8609.84-1839.84,8601.57-1854.48z"/>
		<path id="Path_240" class="st1" d="M8639.03-1740.27c-10.27-21.93-29.68-21.74-49.5-17.61c-15.52,3.23-37.56,8.77-46.76,22.82
			c-10.31,15.73-0.83,36.11,15.8,42.94c18.07,6.56,37.87,6.56,55.94,0C8629.54-1697.62,8647.55-1713.84,8639.03-1740.27z"/>
	</g>
	<g id="Group_90" transform="translate(1851.303 5.594)">
		<path id="Path_241" class="st1" d="M10130.44-2344.26c4.53-17.46-1.81-35.95-16.1-46.95c-34.62-27.13-101.42-54.93-146.37-39.63
			c-14.07,4.79-25.42,20.73-28.42,37.29c-0.84,10.19,0.51,20.45,3.97,30.08c2.72,10.08,7.82,19.36,14.87,27.06
			c4.75,4.46,12.73,9.53,14.25,14.29c1.34,4.82-2.59,13.43-4.12,19.77c-1.69,10.3-0.89,20.86,2.35,30.79
			c2.37,9.95,6.84,19.27,13.12,27.34c11.18,12.28,27.76,18.17,44.18,15.7C10072.54-2238.69,10116.76-2296.33,10130.44-2344.26z"/>
		<path id="Path_242" class="st1" d="M10101.72-2521.16c-15.7-10.65-35.72,0.44-47.3,11.91c-12.23,12.09-18.83,23.52-17.11,40.92
			c1.54,15.59,12.53,25.5,28.98,20.74c13.62-3.95,27.53-18.38,36.04-29.42C10111.07-2488.38,10116.22-2508.67,10101.72-2521.16z"/>
		<path id="Path_243" class="st1" d="M10187.82-2223.52c-7.64,17.36-30.49,18.58-46.41,15.04c-16.78-3.76-28.46-9.95-36.23-25.6
			c-6.97-14.04-2.93-28.26,13.55-32.95c13.63-3.89,33.1,0.95,46.16,5.79C10178.35-2256.26,10193.47-2241.8,10187.82-2223.52z"/>
		<path id="Path_244" class="st1" d="M10210.86-2464.97c-15.26-18-41.36-8.46-55.21-1.67c-16.8,8.27-36.31,22.21-36.66,42.92
			c-0.68,41.23,67.05,20.77,85.16,5.37c6.43-5.08,11.14-12.01,13.51-19.86C10219.74-2447.5,10219.14-2450.38,10210.86-2464.97z"/>
		<path id="Path_245" class="st1" d="M10248.31-2350.78c-10.28-21.93-29.68-21.74-49.5-17.63c-15.51,3.24-37.56,8.77-46.78,22.83
			c-10.29,15.71-0.81,36.11,15.82,42.93c18.07,6.57,37.88,6.57,55.94,0C10238.83-2308.11,10256.82-2324.34,10248.31-2350.78z"/>
	</g>
	<g id="Group_91" transform="translate(1637.934 95.615)">
		<path id="Path_246" class="st1" d="M9006.8-1870.2c4.54-17.46-1.81-35.95-16.12-46.94c-34.62-27.14-101.42-54.95-146.35-39.64
			c-14.08,4.79-25.43,20.73-28.42,37.29c-0.85,10.19,0.5,20.45,3.97,30.08c2.71,10.09,7.81,19.37,14.85,27.08
			c4.75,4.46,12.75,9.51,14.25,14.29c1.34,4.82-2.58,13.42-4.12,19.75c-1.68,10.31-0.88,20.87,2.35,30.8
			c2.37,9.94,6.85,19.27,13.12,27.34c11.19,12.27,27.76,18.15,44.18,15.67C8948.9-1764.61,8993.11-1822.27,9006.8-1870.2z"/>
		<path id="Path_247" class="st1" d="M8978.06-2047.08c-15.67-10.65-35.72,0.44-47.29,11.91c-12.23,12.09-18.83,23.52-17.11,40.92
			c1.54,15.59,12.5,25.5,28.98,20.73c13.6-3.95,27.53-18.38,36.02-29.42C8987.42-2014.31,8992.57-2034.61,8978.06-2047.08z"/>
		<path id="Path_248" class="st1" d="M9064.16-1749.46c-7.63,17.36-30.47,18.59-46.37,15.04c-16.78-3.76-28.46-9.95-36.24-25.6
			c-6.98-14.02-2.94-28.26,13.56-32.95c13.63-3.89,33.08,0.95,46.14,5.79C9054.69-1782.16,9069.83-1767.75,9064.16-1749.46z"/>
		<path id="Path_249" class="st1" d="M9087.19-1990.91c-15.26-18-41.36-8.46-55.19-1.67c-16.81,8.27-36.31,22.21-36.66,42.92
			c-0.7,41.23,67.05,20.77,85.16,5.37c6.42-5.09,11.14-12.02,13.51-19.86C9096.08-1973.43,9095.49-1976.27,9087.19-1990.91z"/>
		<path id="Path_250" class="st1" d="M9124.68-1876.72c-10.27-21.93-29.68-21.74-49.5-17.61c-15.53,3.23-37.56,8.77-46.78,22.82
			c-10.3,15.71-0.83,36.11,15.8,42.93c18.07,6.57,37.88,6.57,55.95,0C9115.17-1834.05,9133.18-1850.27,9124.68-1876.72z"/>
	</g>
	<g id="Group_92" transform="translate(970.402 224.232)">
		<path id="Path_251" class="st1" d="M5497.11-1216.17c-1.56-17.98-13.73-33.28-30.9-38.85c-41.71-13.98-113.95-17.82-151.18,11.64
			c-11.65,9.23-17.03,28.05-14.29,44.65c2.61,9.89,7.31,19.1,13.79,27.01c5.94,8.59,13.85,15.63,23.07,20.53
			c5.97,2.63,15.18,4.72,18.22,8.7c2.88,4.1,2.07,13.53,2.73,20.01c1.87,10.26,6.17,19.93,12.53,28.2
			c5.56,8.58,12.9,15.87,21.52,21.37c14.65,7.83,32.23,7.83,46.88,0C5477.88-1097.33,5500.26-1166.43,5497.11-1216.17z"/>
		<path id="Path_252" class="st1" d="M5410.83-1373.25c-18.35-4.78-33.49,12.36-40.57,27.06c-7.48,15.48-9.88,28.47-2.42,44.3
			c6.67,14.17,20.33,19.83,34.24,9.82c11.5-8.28,19.8-26.52,24.11-39.78C5430.61-1345.49,5428.67-1366.35,5410.83-1373.25z"/>
		<path id="Path_253" class="st1" d="M5591.58-1121.59c-1.37,18.91-22.5,27.72-38.69,29.68c-17.09,2.07-30.14,0.15-42.72-12
			c-11.28-10.87-12.21-25.64,1.75-35.57c11.54-8.23,31.5-10.2,45.43-10.03C5571.71-1149.28,5590.81-1140.72,5591.58-1121.59z"/>
		<path id="Path_254" class="st1" d="M5532.47-1356.84c-20.4-11.87-41.81,5.87-52.57,16.92c-13.07,13.4-26.78,33.09-20.18,52.7
			c13.16,39.08,70.13-2.88,82.04-23.45c4.35-6.94,6.48-15.05,6.09-23.24C5546.7-1343.34,5545.21-1345.82,5532.47-1356.84z"/>
		<path id="Path_255" class="st1" d="M5605.99-1261.79c-17.03-17.21-35.24-10.55-52.55,0c-13.54,8.25-32.45,20.84-36.43,37.15
			c-4.45,18.28,11.28,34.32,29.27,35.18c19.23,0.14,37.89-6.5,52.72-18.74C5611.33-1218.4,5622.87-1239.71,5605.99-1261.79z"/>
	</g>
	<g id="Group_93" transform="translate(1469.86 209.228)">
		<path id="Path_256" class="st1" d="M8127.37-1295.18c-1.57-17.98-13.73-33.28-30.9-38.85c-41.71-13.98-113.96-17.82-151.19,11.64
			c-11.67,9.23-17.03,28.05-14.31,44.65c2.62,9.88,7.32,19.09,13.79,27.01c5.93,8.6,13.84,15.64,23.07,20.53
			c5.97,2.63,15.18,4.72,18.22,8.7c2.88,4.1,2.05,13.53,2.73,20c1.87,10.28,6.16,19.96,12.53,28.24
			c5.56,8.58,12.9,15.87,21.52,21.37c14.65,7.83,32.23,7.83,46.88,0C8108.15-1176.32,8130.51-1245.46,8127.37-1295.18z"/>
		<path id="Path_257" class="st1" d="M8041.08-1452.26c-18.33-4.79-33.49,12.36-40.58,27.06c-7.46,15.48-9.86,28.47-2.43,44.28
			c6.68,14.17,20.33,19.85,34.26,9.83c11.5-8.28,19.79-26.52,24.09-39.78C8060.85-1424.5,8058.93-1445.35,8041.08-1452.26z"/>
		<path id="Path_258" class="st1" d="M8221.84-1200.61c-1.38,18.91-22.5,27.7-38.69,29.68c-17.09,2.07-30.14,0.15-42.72-12
			c-11.28-10.88-12.23-25.64,1.75-35.57c11.54-8.23,31.5-10.2,45.42-10.03C8201.96-1228.29,8221.06-1219.73,8221.84-1200.61z"/>
		<path id="Path_259" class="st1" d="M8162.73-1435.85c-20.4-11.87-41.81,5.87-52.58,16.92c-13.06,13.4-26.76,33.07-20.16,52.7
			c13.16,39.08,70.12-2.88,82.04-23.45c4.35-6.94,6.47-15.05,6.08-23.24C8176.96-1422.36,8175.45-1424.85,8162.73-1435.85z"/>
		<path id="Path_260" class="st1" d="M8236.26-1340.8c-17.03-17.21-35.25-10.55-52.55,0c-13.54,8.25-32.45,20.84-36.43,37.15
			c-4.45,18.28,11.28,34.32,29.27,35.18c19.23,0.13,37.89-6.5,52.72-18.74C8241.6-1297.4,8253.14-1318.72,8236.26-1340.8z"/>
	</g>
	<g id="Group_94" transform="translate(1765.17 89.013)">
		<path id="Path_261" class="st1" d="M9682.54-1928.26c-1.57-17.98-13.74-33.27-30.9-38.85c-41.7-13.97-113.94-17.81-151.18,11.64
			c-11.67,9.23-17.03,28.05-14.31,44.67c2.61,9.88,7.32,19.08,13.79,26.99c5.94,8.59,13.85,15.63,23.07,20.53
			c5.97,2.63,15.18,4.72,18.22,8.72c2.88,4.09,2.07,13.51,2.73,20c1.87,10.26,6.17,19.93,12.53,28.2
			c5.56,8.58,12.9,15.87,21.52,21.37c14.65,7.83,32.24,7.83,46.88,0C9663.32-1809.4,9685.69-1878.52,9682.54-1928.26z"/>
		<path id="Path_262" class="st1" d="M9596.25-2085.34c-18.34-4.78-33.47,12.36-40.58,27.06c-7.46,15.5-9.86,28.49-2.41,44.3
			c6.67,14.17,20.33,19.83,34.25,9.82c11.5-8.27,19.8-26.52,24.11-39.78C9616.04-2057.59,9614.1-2078.42,9596.25-2085.34z"/>
		<path id="Path_263" class="st1" d="M9777.01-1833.72c-1.38,18.91-22.5,27.72-38.69,29.68c-17.08,2.08-30.14,0.15-42.72-11.99
			c-11.28-10.88-12.23-25.65,1.75-35.59c11.54-8.22,31.5-10.18,45.42-9.98C9757.14-1861.38,9776.23-1852.81,9777.01-1833.72z"/>
		<path id="Path_264" class="st1" d="M9717.9-2068.94c-20.4-11.85-41.81,5.88-52.56,16.92c-13.07,13.4-26.78,33.09-20.18,52.72
			c13.16,39.07,70.13-2.88,82.04-23.46c4.35-6.94,6.47-15.05,6.08-23.24C9732.12-2055.44,9730.62-2057.92,9717.9-2068.94z"/>
		<path id="Path_265" class="st1" d="M9791.43-1973.87c-17.03-17.21-35.25-10.55-52.55,0c-13.54,8.2-32.45,20.8-36.43,37.13
			c-4.45,18.26,11.28,34.31,29.27,35.17c19.23,0.14,37.89-6.5,52.72-18.74C9796.78-1930.48,9808.3-1951.8,9791.43-1973.87z"/>
	</g>
	<g id="Group_95" transform="translate(1482.331 120.643)">
		<path id="Path_266" class="st1" d="M8180.9-1775.07c-7.81-16.27-24.58-26.3-42.61-25.47c-43.95,1.61-112.94,23.46-137.4,64.16
			c-7.66,12.74-6.05,32.24,2.35,46.82c5.92,8.33,13.57,15.3,22.42,20.42c8.58,5.95,18.47,9.76,28.82,11.1
			c6.52,0.34,15.88-0.93,20.11,1.74c4.13,2.82,6.7,11.91,9.61,17.75c5.37,8.96,12.79,16.51,21.67,22.01
			c8.23,6.08,17.66,10.31,27.67,12.43c16.46,2.15,32.91-4.05,43.86-16.52C8204.79-1657.05,8201.36-1729.62,8180.9-1775.07z"/>
		<path id="Path_267" class="st1" d="M8044.82-1891.67c-18.86,1.99-26.99,23.37-28.44,39.63c-1.54,17.13,0.78,30.13,13.33,42.31
			c11.24,10.92,26.01,11.4,35.51-2.86c7.86-11.81,9.19-31.81,8.55-45.74C8073.15-1872.67,8063.95-1891.49,8044.82-1891.67z"/>
		<path id="Path_268" class="st1" d="M8302.64-1719.82c5.37,18.17-11.28,33.84-25.77,41.41c-15.25,7.95-28.15,10.75-44.2,3.82
			c-14.41-6.21-20.48-19.69-10.9-33.91c7.9-11.76,25.89-20.63,39-25.35C8274.27-1738.73,8295.18-1737.45,8302.64-1719.82z"/>
		<path id="Path_269" class="st1" d="M8164.46-1919.16c-23.28-3.92-37.08,20.22-43.24,34.33c-7.52,17.14-13.4,40.38-0.3,56.4
			c26.07,31.96,64.61-27.4,68.52-50.84c1.62-8.03,0.75-16.37-2.51-23.89C8182.52-1911.55,8180.23-1913.35,8164.46-1919.16z"/>
		<path id="Path_270" class="st1" d="M8266.75-1856.11c-22-10.1-36.71,2.51-49.18,18.49c-9.77,12.48-23.04,30.92-21.02,47.62
			c2.27,18.67,22.68,28.12,39.8,22.6c18.04-6.64,33.17-19.42,42.74-36.1C8287.03-1817.37,8290.3-1841.39,8266.75-1856.11z"/>
	</g>
	<g id="Group_96" transform="translate(1789.415 12.924)">
		<path id="Path_271" class="st1" d="M9798.08-2342.35c-7.81-16.27-24.58-26.29-42.61-25.45c-43.96,1.6-112.92,23.45-137.38,64.15
			c-7.66,12.74-6.05,32.25,2.34,46.82c5.93,8.33,13.57,15.29,22.42,20.42c8.58,5.95,18.47,9.76,28.83,11.1
			c6.5,0.34,15.88-0.93,20.11,1.74c4.13,2.82,6.68,11.91,9.59,17.75c5.36,8.97,12.8,16.52,21.68,22.03
			c8.22,6.07,17.65,10.31,27.65,12.43c16.46,2.16,32.92-4.04,43.86-16.52C9821.95-2224.31,9818.54-2296.89,9798.08-2342.35z"/>
		<path id="Path_272" class="st1" d="M9661.98-2458.94c-18.85,1.99-26.98,23.37-28.44,39.63c-1.54,17.13,0.8,30.13,13.33,42.31
			c11.24,10.92,26.01,11.42,35.52-2.86c7.84-11.81,9.18-31.8,8.55-45.74C9690.28-2439.93,9681.13-2458.76,9661.98-2458.94z"/>
		<path id="Path_273" class="st1" d="M9919.8-2287.09c5.35,18.17-11.28,33.84-25.77,41.41c-15.26,7.95-28.15,10.75-44.21,3.82
			c-14.37-6.21-20.46-19.69-10.9-33.91c7.91-11.76,25.9-20.63,39.01-25.35C9891.44-2306.01,9912.33-2304.72,9919.8-2287.09z"/>
		<path id="Path_274" class="st1" d="M9781.61-2486.43c-23.27-3.92-37.06,20.22-43.24,34.33c-7.52,17.14-13.4,40.38-0.32,56.44
			c26.07,31.96,64.63-27.4,68.53-50.86c1.61-8.03,0.74-16.36-2.51-23.89C9799.67-2478.82,9797.38-2480.6,9781.61-2486.43z"/>
		<path id="Path_275" class="st1" d="M9883.91-2423.38c-21.99-10.1-36.7,2.55-49.19,18.49c-9.77,12.48-23.04,30.92-21,47.62
			c2.26,18.67,22.66,28.12,39.78,22.62c18.04-6.65,33.17-19.43,42.73-36.11C9904.19-2384.64,9907.47-2408.66,9883.91-2423.38z"/>
	</g>
	<g id="Group_97" transform="translate(1588.804 60.388)">
		<path id="Path_276" class="st1" d="M8736.71-2050.19c7.9-16.22,5.35-35.59-6.49-49.21c-28.54-33.46-88.5-73.98-135.59-67.88
			c-14.75,1.88-29.03,15.28-35.25,30.9c-2.85,9.82-3.56,20.14-2.08,30.27c0.66,10.41,3.82,20.51,9.2,29.45
			c3.76,5.32,10.58,11.87,11.13,16.84c0.34,5.01-5.2,12.65-7.96,18.55c-3.7,9.77-5.01,20.28-3.8,30.65
			c0.35,10.22,2.88,20.24,7.42,29.4c8.53,14.25,23.61,23.3,40.2,24.14C8659-1958.24,8713.77-2005.95,8736.71-2050.19z"/>
		<path id="Path_277" class="st1" d="M8743.65-2229.28c-13.25-13.55-35.09-6.65-48.72,2.31c-14.41,9.4-23.13,19.32-24.9,36.72
			c-1.58,15.58,7.21,27.47,24.29,26.05c14.13-1.16,30.64-12.53,41.15-21.67C8746.31-2195.29,8755.38-2214.15,8743.65-2229.28z"/>
		<path id="Path_278" class="st1" d="M8768.97-1920.47c-10.93,15.48-33.57,12.16-48.46,5.5c-15.67-7.02-25.9-15.4-30.43-32.28
			c-4.04-15.14,2.73-28.27,19.83-29.6c14.13-1.1,32.24,7.52,44.08,14.84C8766.18-1954.41,8778.14-1937.26,8768.97-1920.47z"/>
		<path id="Path_279" class="st1" d="M8839.47-2152.54c-11.39-20.68-38.85-16.51-53.77-12.61c-18.11,4.76-39.99,14.57-44.43,34.79
			c-8.87,40.27,61.58,33.66,82.41,22.16c7.3-3.71,13.3-9.57,17.18-16.78C8844.71-2133.65,8844.69-2136.56,8839.47-2152.54z"/>
		<path id="Path_280" class="st1" d="M8853.52-2033.2c-5.73-23.51-24.78-27.19-45.03-27.08c-15.85,0.09-38.56,1.13-50.36,13.09
			c-13.22,13.36-7.98,35.22,6.97,45.22c16.41,10.02,35.82,13.94,54.83,11.08C8835.75-1993.25,8856.61-2005.58,8853.52-2033.2z"/>
	</g>
	<g id="Group_98" transform="translate(1704.646 64.694)">
		<path id="Path_281" class="st1" d="M9360.73-2036.34c3.34-17.74-4.25-35.76-19.29-45.74c-36.4-24.7-104.95-47.86-148.73-29.51
			c-13.72,5.76-23.94,22.44-25.8,39.16c-0.15,10.22,1.9,20.36,6.02,29.72c3.41,9.88,9.13,18.79,16.69,26
			c5.01,4.13,13.35,8.62,15.18,13.28c1.67,4.72-1.64,13.57-2.75,20c-0.97,10.4,0.56,20.88,4.46,30.57
			c3.04,9.76,8.14,18.75,14.96,26.37c12.01,11.48,28.94,16.21,45.16,12.62C9310.22-1927.04,9350.37-1987.59,9360.73-2036.34z"/>
		<path id="Path_282" class="st1" d="M9319.93-2210.84c-16.37-9.54-35.59,2.9-46.37,15.14c-11.37,12.91-17.18,24.78-14.26,41.98
			c2.61,15.44,14.24,24.58,30.34,18.68c13.32-4.87,26.21-20.22,33.93-31.81C9331.53-2178.79,9335.27-2199.39,9319.93-2210.84z"/>
		<path id="Path_283" class="st1" d="M9426.25-1919.81c-6.42,17.84-29.13,20.63-45.25,18.17c-17.01-2.61-29.07-7.96-37.91-23.05
			c-7.91-13.51-4.87-27.98,11.28-33.84c13.33-4.79,33.07-1.31,46.43,2.63C9414.56-1951.81,9430.65-1938.45,9426.25-1919.81z"/>
		<path id="Path_284" class="st1" d="M9432.67-2162.28c-16.45-16.92-41.86-5.64-55.19,2.11c-16.2,9.4-34.7,24.65-33.61,45.33
			c2.14,41.18,68.3,16.12,85.33-0.5c6.06-5.51,10.28-12.75,12.11-20.73C9442.73-2145.48,9441.94-2148.25,9432.67-2162.28z"/>
		<path id="Path_285" class="st1" d="M9477.88-2050.94c-11.76-21.15-31.11-19.66-50.59-14.17c-15.26,4.28-36.88,11.28-45.12,25.97
			c-9.2,16.39,1.66,36.08,18.71,41.75c18.48,5.31,38.25,3.95,55.83-3.85C9471.33-2007.72,9488.17-2025.14,9477.88-2050.94z"/>
	</g>
</g>
</svg>
